<svg preserveAspectRatio="none" width="100%" height="100%" overflow="visible" style="display: block;" viewBox="0 0 62 50" fill="none" xmlns="http://www.w3.org/2000/svg">
<g id="Group 4">
<path id="Vector" d="M55.7692 0H5.76923C4.23914 0 2.77171 0.607828 1.68977 1.68977C0.607828 2.77171 0 4.23914 0 5.76923L0 38.4615C0 39.9916 0.607828 41.4591 1.68977 42.541C2.77171 43.6229 4.23914 44.2308 5.76923 44.2308H11.5385V46.1538H8.65385V50H52.8846V46.1538H50V44.2308H55.7692C57.2993 44.2308 58.7668 43.6229 59.8487 42.541C60.9306 41.4591 61.5385 39.9916 61.5385 38.4615V5.76923C61.5385 4.23914 60.9306 2.77171 59.8487 1.68977C58.7668 0.607828 57.2993 0 55.7692 0ZM57.6923 38.4615C57.6923 38.9716 57.4897 39.4607 57.1291 39.8214C56.7684 40.182 56.2793 40.3846 55.7692 40.3846H5.76923C5.2592 40.3846 4.77006 40.182 4.40941 39.8214C4.04876 39.4607 3.84615 38.9716 3.84615 38.4615V5.76923C3.84615 5.2592 4.04876 4.77006 4.40941 4.40941C4.77006 4.04876 5.2592 3.84615 5.76923 3.84615H55.7692C56.2793 3.84615 56.7684 4.04876 57.1291 4.40941C57.4897 4.77006 57.6923 5.2592 57.6923 5.76923V38.4615Z" fill="var(--fill-0, black)"/>
<path id="Vector_2" d="M11.0577 8.65383H7.21154V33.6538C7.21154 34.1639 7.41415 34.653 7.77479 35.0137C8.13544 35.3743 8.62458 35.5769 9.13462 35.5769H20.6731V31.7308H11.0577V8.65383ZM34.3654 30.6346C34.3654 30.9508 34.2398 31.2541 34.0162 31.4777C33.7926 31.7013 33.4893 31.8269 33.1731 31.8269C32.8569 31.8269 32.5536 31.7013 32.33 31.4777C32.1064 31.2541 31.9808 30.9508 31.9808 30.6346L30.2788 8.51921L26.4327 8.80767L28.1346 30.9231C28.2137 32.2005 28.777 33.3998 29.7096 34.2764C30.6422 35.153 31.8739 35.6411 33.1538 35.6411C34.4338 35.6411 35.6655 35.153 36.5981 34.2764C37.5307 33.3998 38.094 32.2005 38.1731 30.9231L39.875 8.80767L36.0288 8.51921L34.3654 30.6346ZM40.8654 10.5769V33.6538C40.8654 34.1639 41.068 34.653 41.4286 35.0137C41.7893 35.3743 42.2784 35.5769 42.7885 35.5769H54.3269V31.7308H44.7115V24.0384H53.3654V20.1923H44.7115V12.5H54.3269V8.65383H42.7885C42.2784 8.65383 41.7893 8.85644 41.4286 9.21709C41.068 9.57773 40.8654 10.0669 40.8654 10.5769ZM21.6346 8.65383H25.4808V35.5769H21.6346V8.65383Z" fill="var(--fill-0, black)"/>
</g>
</svg>
