<svg preserveAspectRatio="none" width="100%" height="100%" overflow="visible" style="display: block;" viewBox="0 0 73 50" fill="none" xmlns="http://www.w3.org/2000/svg">
<g id="Group 3">
<path id="Vector" d="M67.2256 0H14.4827C13.2021 0.00278722 11.974 0.509097 11.0644 1.40935C10.1548 2.30959 9.63673 3.53136 9.62238 4.81021C8.35222 4.82438 7.1381 5.33457 6.2399 6.23156C5.34171 7.12855 4.83084 8.34106 4.81665 9.60951C3.53609 9.62385 2.31269 10.1412 1.41123 11.0496C0.509778 11.958 0.00279095 13.1844 0 14.4634V45.1353C-3.24268e-06 46.4236 0.511718 47.6593 1.4229 48.5713C2.33407 49.4833 3.57029 49.9971 4.86034 50H57.6141C58.8929 49.9944 60.1181 49.4868 61.0254 48.5868C61.9327 47.6869 62.4492 46.4668 62.4635 45.1898C63.7355 45.1756 64.9513 44.6639 65.8498 43.7645C66.7483 42.8652 67.2579 41.6499 67.2692 40.3796C68.5507 40.3681 69.7758 39.8516 70.6778 38.9426C71.5799 38.0336 72.0859 36.8055 72.0859 35.5257V4.85384C72.083 3.56741 71.57 2.33449 70.6592 1.42484C69.7483 0.515192 68.5137 0.00288116 67.2256 0ZM62.4198 43.0083H9.66606C8.95637 43.0083 8.27574 42.7267 7.7739 42.2256C7.27207 41.7244 6.99015 41.0447 6.99015 40.336V9.66405C6.99005 8.9628 7.26597 8.28961 7.7584 7.78968C8.25082 7.28976 8.92028 7.00316 9.62238 6.99171V35.5257C9.62238 36.8131 10.1344 38.0477 11.0459 38.9579C11.4973 39.4087 12.0331 39.7662 12.6227 40.0101C13.2124 40.254 13.8444 40.3796 14.4827 40.3796H65.0848C65.0762 41.0798 64.7916 41.7483 64.2928 42.2404C63.7939 42.7324 63.121 43.0083 62.4198 43.0083ZM67.3785 28.6213C67.3785 28.9106 67.2634 29.188 67.0586 29.3926C66.8537 29.5971 66.5759 29.712 66.2863 29.712C64.9914 29.712 63.7496 30.2257 62.834 31.1401C61.9184 32.0545 61.4041 33.2946 61.4041 34.5877C61.4041 34.877 61.289 35.1544 61.0842 35.359C60.8793 35.5635 60.6015 35.6785 60.3119 35.6785H21.3964C21.1067 35.6785 20.8289 35.5635 20.6241 35.359C20.4193 35.1544 20.3042 34.877 20.3042 34.5877C20.3042 33.2946 19.7898 32.0545 18.8742 31.1401C17.9586 30.2257 16.7168 29.712 15.422 29.712C15.1323 29.712 14.8545 29.5971 14.6497 29.3926C14.4449 29.188 14.3298 28.9106 14.3298 28.6213V11.7692C14.3298 11.4799 14.4449 11.2025 14.6497 10.9979C14.8545 10.7934 15.1323 10.6784 15.422 10.6784C16.7168 10.6784 17.9586 10.1648 18.8742 9.2504C19.7898 8.33604 20.3042 7.0959 20.3042 5.80279C20.3042 5.51351 20.4193 5.23607 20.6241 5.03152C20.8289 4.82696 21.1067 4.71204 21.3964 4.71204H60.3119C60.6015 4.71204 60.8793 4.82696 61.0842 5.03152C61.289 5.23607 61.4041 5.51351 61.4041 5.80279C61.4041 7.0959 61.9184 8.33604 62.834 9.2504C63.7496 10.1648 64.9914 10.6784 66.2863 10.6784C66.5759 10.6784 66.8537 10.7934 67.0586 10.9979C67.2634 11.2025 67.3785 11.4799 67.3785 11.7692V28.6213Z" fill="var(--fill-0, black)"/>
<path id="path137" d="M45.7055 13.1902L44.9081 15.2724H42.8263C43.1099 15.625 43.2483 16.0139 43.3191 16.4703H45.7055L44.9081 18.5523H43.3194C43.1426 19.4756 42.6803 20.0794 42.0145 20.6128C41.2438 21.1921 40.3631 21.4961 39.4869 21.5802L44.4594 26.9939H41.2252L36.6776 21.7314V19.6486C37.7152 19.6275 38.5081 19.7425 39.4251 19.4476C39.9583 19.2568 40.4129 19.0786 40.5709 18.5525H36.1963L36.9937 16.4707H40.5619C40.3693 15.9207 39.9452 15.5685 39.4631 15.4372C38.8066 15.2788 38.1404 15.2733 37.5168 15.2727H36.1963L36.9937 13.1906L45.7055 13.1902Z" fill="var(--fill-0, #010101)"/>
</g>
</svg>
