<svg preserveAspectRatio="none" width="100%" height="100%" overflow="visible" style="display: block;" viewBox="0 0 47 50" fill="none" xmlns="http://www.w3.org/2000/svg">
<path id="Vector" d="M46.9739 16.2915L43.6413 0.454459C43.6017 0.255 43.4826 0.135325 43.3636 0.0954332C43.2843 0.0156497 43.1256 -0.024242 42.8875 0.0156497C42.8082 0.0156497 42.7685 0.0555415 42.6892 0.0954332L28.962 8.35302C28.6843 8.51259 28.5652 8.91151 28.7636 9.19075C28.843 9.31043 28.9223 9.39021 29.0413 9.4301L32.8103 11.0657L32.0565 13.0204C31.8185 13.6985 26.0658 28.4186 3.13424 28.4186C2.26141 28.4186 1.30924 28.3787 0.396739 28.3388H0.277717C0.19837 28.3388 0.158696 28.3787 0.0793478 28.4186C0.0396739 28.4585 0 28.5382 0 28.618C0 28.7377 0.0793479 28.8574 0.19837 28.8973L0.277717 28.9372C5.23696 30.6126 10.3946 31.4902 15.6315 31.57C34.556 31.57 41.3402 17.4084 41.4196 17.2489L42.3321 15.2942L46.1805 16.9696C46.3392 17.0494 46.5375 17.0095 46.6169 16.9696C46.7359 16.9297 46.8549 16.85 46.9343 16.6505C47.0136 16.5308 47.0136 16.4112 46.9739 16.2915ZM2.69783 50H12.5766V35.5991C9.24403 35.3597 5.95109 34.8411 2.69783 34.0034V50ZM34.3973 30.5328V50H44.2761V20.6796H44.2364C42.8082 22.9534 39.6739 27.142 34.3973 30.5328ZM18.5277 50H28.4065V33.5247C25.55 34.6018 22.2968 35.3597 18.5277 35.639V50Z" fill="var(--fill-0, black)"/>
</svg>
