<svg width="605" height="167" viewBox="0 0 605 167" fill="none" xmlns="http://www.w3.org/2000/svg">
<path d="M8.84 91V6.99999H49.28C57.12 6.99999 63.88 8.27999 69.56 10.84C75.32 13.4 79.76 17.08 82.88 21.88C86 26.6 87.56 32.2 87.56 38.68C87.56 45.16 86 50.76 82.88 55.48C79.76 60.2 75.32 63.88 69.56 66.52C63.88 69.08 57.12 70.36 49.28 70.36H24.56L37.16 58.24V91H8.84ZM37.16 61.36L24.56 48.52H47.48C51.4 48.52 54.28 47.64 56.12 45.88C58.04 44.12 59 41.72 59 38.68C59 35.64 58.04 33.24 56.12 31.48C54.28 29.72 51.4 28.84 47.48 28.84H24.56L37.16 16V61.36ZM133.448 92.2C125.448 92.2 118.448 90.72 112.448 87.76C106.528 84.8 101.928 80.76 98.6478 75.64C95.3678 70.44 93.7278 64.6 93.7278 58.12C93.7278 51.48 95.3278 45.6 98.5278 40.48C101.808 35.36 106.248 31.36 111.848 28.48C117.528 25.6 123.888 24.16 130.928 24.16C137.408 24.16 143.368 25.44 148.808 28C154.328 30.56 158.728 34.36 162.008 39.4C165.368 44.44 167.048 50.68 167.048 58.12C167.048 59.08 167.008 60.16 166.928 61.36C166.848 62.48 166.768 63.52 166.688 64.48H116.168V51.4H152.288L142.088 54.88C142.088 52.32 141.608 50.16 140.648 48.4C139.768 46.56 138.528 45.16 136.928 44.2C135.328 43.16 133.408 42.64 131.168 42.64C128.928 42.64 126.968 43.16 125.288 44.2C123.688 45.16 122.448 46.56 121.568 48.4C120.688 50.16 120.248 52.32 120.248 54.88V58.96C120.248 61.76 120.808 64.16 121.928 66.16C123.048 68.16 124.648 69.68 126.728 70.72C128.808 71.68 131.328 72.16 134.288 72.16C137.328 72.16 139.808 71.76 141.728 70.96C143.728 70.16 145.808 68.96 147.968 67.36L162.128 81.64C158.928 85.08 154.968 87.72 150.248 89.56C145.608 91.32 140.008 92.2 133.448 92.2ZM176.806 91V25.36H202.606V45.16L198.406 39.52C200.406 34.4 203.606 30.56 208.006 28C212.406 25.44 217.686 24.16 223.846 24.16V48.16C222.646 48 221.566 47.88 220.606 47.8C219.726 47.72 218.806 47.68 217.846 47.68C213.766 47.68 210.406 48.76 207.766 50.92C205.206 53 203.926 56.64 203.926 61.84V91H176.806ZM255.413 80.2L256.013 48.28L278.693 25.36H310.733L280.733 56.8L267.173 67.72L255.413 80.2ZM232.733 91V1.95999H259.853V91H232.733ZM280.133 91L262.133 68.2L278.813 47.68L312.893 91H280.133ZM342.816 92.2C337.216 92.2 331.696 91.6 326.256 90.4C320.816 89.2 316.416 87.64 313.056 85.72L320.496 67.84C323.616 69.68 327.216 71.12 331.296 72.16C335.456 73.2 339.496 73.72 343.416 73.72C346.696 73.72 348.896 73.44 350.016 72.88C351.216 72.32 351.816 71.56 351.816 70.6C351.816 69.64 351.136 68.96 349.776 68.56C348.416 68.08 346.616 67.72 344.376 67.48C342.136 67.24 339.656 66.96 336.936 66.64C334.296 66.24 331.616 65.68 328.896 64.96C326.176 64.24 323.696 63.16 321.456 61.72C319.216 60.28 317.416 58.36 316.056 55.96C314.696 53.48 314.016 50.36 314.016 46.6C314.016 42.44 315.256 38.68 317.736 35.32C320.296 31.96 324.056 29.28 329.016 27.28C334.056 25.2 340.256 24.16 347.616 24.16C352.416 24.16 357.216 24.6 362.016 25.48C366.816 26.36 370.936 27.72 374.376 29.56L366.936 47.44C363.576 45.6 360.256 44.36 356.976 43.72C353.776 43 350.776 42.64 347.976 42.64C344.536 42.64 342.176 42.96 340.896 43.6C339.696 44.24 339.096 44.96 339.096 45.76C339.096 46.72 339.776 47.44 341.136 47.92C342.496 48.4 344.296 48.76 346.536 49C348.776 49.24 351.216 49.56 353.856 49.96C356.576 50.28 359.256 50.84 361.896 51.64C364.616 52.36 367.096 53.44 369.336 54.88C371.576 56.32 373.376 58.28 374.736 60.76C376.096 63.16 376.776 66.24 376.776 70C376.776 73.92 375.536 77.6 373.056 81.04C370.576 84.4 366.816 87.12 361.776 89.2C356.736 91.2 350.416 92.2 342.816 92.2ZM426.364 91V28.6C426.364 20.12 428.884 13.36 433.924 8.32C439.044 3.28 446.284 0.759996 455.644 0.759996C458.524 0.759996 461.404 1.03999 464.284 1.59999C467.244 2.08 469.724 2.88 471.724 4L465.244 22.84C464.364 22.44 463.404 22.08 462.364 21.76C461.324 21.44 460.244 21.28 459.124 21.28C457.204 21.28 455.644 21.88 454.444 23.08C453.244 24.28 452.644 26.2 452.644 28.84V31.96L453.484 43.12V91H426.364ZM417.364 48.76V28.96H466.924V48.76H417.364ZM509.752 92.2C502.312 92.2 495.712 90.76 489.952 87.88C484.272 84.92 479.792 80.88 476.512 75.76C473.232 70.64 471.592 64.76 471.592 58.12C471.592 51.48 473.232 45.6 476.512 40.48C479.792 35.36 484.272 31.36 489.952 28.48C495.712 25.6 502.312 24.16 509.752 24.16C517.192 24.16 523.792 25.6 529.552 28.48C535.312 31.36 539.792 35.36 542.992 40.48C546.272 45.6 547.912 51.48 547.912 58.12C547.912 64.76 546.272 70.64 542.992 75.76C539.792 80.88 535.312 84.92 529.552 87.88C523.792 90.76 517.192 92.2 509.752 92.2ZM509.752 71.08C511.752 71.08 513.552 70.6 515.152 69.64C516.752 68.68 518.032 67.24 518.992 65.32C519.952 63.32 520.432 60.92 520.432 58.12C520.432 55.24 519.952 52.88 518.992 51.04C518.032 49.12 516.752 47.68 515.152 46.72C513.552 45.76 511.752 45.28 509.752 45.28C507.752 45.28 505.952 45.76 504.352 46.72C502.752 47.68 501.472 49.12 500.512 51.04C499.552 52.88 499.072 55.24 499.072 58.12C499.072 60.92 499.552 63.32 500.512 65.32C501.472 67.24 502.752 68.68 504.352 69.64C505.952 70.6 507.752 71.08 509.752 71.08ZM557.6 91V25.36H583.4V45.16L579.2 39.52C581.2 34.4 584.4 30.56 588.8 28C593.2 25.44 598.48 24.16 604.64 24.16V48.16C603.44 48 602.36 47.88 601.4 47.8C600.52 47.72 599.6 47.68 598.64 47.68C594.56 47.68 591.2 48.76 588.56 50.92C586 53 584.72 56.64 584.72 61.84V91H557.6ZM0.48 166L24.96 110H43.52L68 166H48.48L30.4 118.96H37.76L19.68 166H0.48ZM15.04 156.24L19.84 142.64H45.6L50.4 156.24H15.04ZM129.173 121.44C132.48 121.44 135.44 122.133 138.053 123.52C140.72 124.853 142.8 126.96 144.293 129.84C145.84 132.72 146.613 136.453 146.613 141.04V166H128.533V144.16C128.533 141.44 128.08 139.52 127.173 138.4C126.266 137.227 125.093 136.64 123.653 136.64C122.586 136.64 121.626 136.907 120.773 137.44C119.92 137.973 119.226 138.827 118.693 140C118.213 141.12 117.973 142.667 117.973 144.64V166H99.8931V144.16C99.8931 141.44 99.4665 139.52 98.6131 138.4C97.7598 137.227 96.5598 136.64 95.0131 136.64C93.9465 136.64 92.9865 136.907 92.1331 137.44C91.2798 137.973 90.5865 138.827 90.0531 140C89.5731 141.12 89.3331 142.667 89.3331 144.64V166H71.2531V122.24H88.4531V134.8L84.9331 131.28C86.5865 127.973 88.7998 125.52 91.5731 123.92C94.3465 122.267 97.4398 121.44 100.853 121.44C104.693 121.44 108.08 122.453 111.013 124.48C114 126.453 116 129.6 117.013 133.92L111.493 133.04C113.093 129.413 115.413 126.587 118.453 124.56C121.546 122.48 125.12 121.44 129.173 121.44ZM184.456 166.8C180.456 166.8 177.23 166 174.776 164.4C172.323 162.8 170.536 160.32 169.416 156.96C168.35 153.6 167.816 149.307 167.816 144.08C167.816 138.907 168.403 134.667 169.576 131.36C170.75 128 172.563 125.52 175.016 123.92C177.523 122.267 180.67 121.44 184.456 121.44C188.296 121.44 191.816 122.347 195.016 124.16C198.216 125.973 200.776 128.587 202.696 132C204.616 135.36 205.576 139.387 205.576 144.08C205.576 148.773 204.616 152.827 202.696 156.24C200.776 159.6 198.216 162.213 195.016 164.08C191.816 165.893 188.296 166.8 184.456 166.8ZM155.256 166V106.64H173.336V128.08L172.536 144.08L172.456 160.08V166H155.256ZM180.136 152.72C181.47 152.72 182.67 152.4 183.736 151.76C184.803 151.12 185.656 150.16 186.296 148.88C186.936 147.547 187.256 145.947 187.256 144.08C187.256 142.16 186.936 140.587 186.296 139.36C185.656 138.08 184.803 137.12 183.736 136.48C182.67 135.84 181.47 135.52 180.136 135.52C178.803 135.52 177.603 135.84 176.536 136.48C175.47 137.12 174.616 138.08 173.976 139.36C173.336 140.587 173.016 142.16 173.016 144.08C173.016 145.947 173.336 147.547 173.976 148.88C174.616 150.16 175.47 151.12 176.536 151.76C177.603 152.4 178.803 152.72 180.136 152.72ZM237.458 166V158.24L236.178 156.16V141.44C236.178 139.307 235.511 137.68 234.178 136.56C232.898 135.44 230.791 134.88 227.858 134.88C225.885 134.88 223.885 135.2 221.858 135.84C219.831 136.427 218.098 137.253 216.658 138.32L210.898 126.4C213.458 124.8 216.525 123.573 220.098 122.72C223.671 121.867 227.165 121.44 230.578 121.44C238.098 121.44 243.911 123.12 248.018 126.48C252.178 129.84 254.258 135.173 254.258 142.48V166H237.458ZM225.058 166.8C221.485 166.8 218.498 166.187 216.098 164.96C213.698 163.733 211.885 162.107 210.658 160.08C209.431 158 208.818 155.707 208.818 153.2C208.818 150.373 209.538 147.973 210.978 146C212.418 144.027 214.605 142.533 217.538 141.52C220.525 140.507 224.285 140 228.818 140H237.938V148.72H231.698C229.778 148.72 228.365 149.04 227.458 149.68C226.605 150.267 226.178 151.173 226.178 152.4C226.178 153.413 226.551 154.267 227.298 154.96C228.098 155.6 229.165 155.92 230.498 155.92C231.725 155.92 232.845 155.6 233.858 154.96C234.925 154.267 235.698 153.2 236.178 151.76L238.498 157.12C237.805 160.373 236.338 162.8 234.098 164.4C231.858 166 228.845 166.8 225.058 166.8ZM279.992 166.8C276.259 166.8 272.579 166.4 268.952 165.6C265.325 164.8 262.392 163.76 260.152 162.48L265.112 150.56C267.192 151.787 269.592 152.747 272.312 153.44C275.085 154.133 277.779 154.48 280.392 154.48C282.579 154.48 284.045 154.293 284.792 153.92C285.592 153.547 285.992 153.04 285.992 152.4C285.992 151.76 285.539 151.307 284.632 151.04C283.725 150.72 282.525 150.48 281.032 150.32C279.539 150.16 277.885 149.973 276.072 149.76C274.312 149.493 272.525 149.12 270.712 148.64C268.899 148.16 267.245 147.44 265.752 146.48C264.259 145.52 263.059 144.24 262.152 142.64C261.245 140.987 260.792 138.907 260.792 136.4C260.792 133.627 261.619 131.12 263.272 128.88C264.979 126.64 267.485 124.853 270.792 123.52C274.152 122.133 278.285 121.44 283.192 121.44C286.392 121.44 289.592 121.733 292.792 122.32C295.992 122.907 298.739 123.813 301.032 125.04L296.072 136.96C293.832 135.733 291.619 134.907 289.432 134.48C287.299 134 285.299 133.76 283.432 133.76C281.139 133.76 279.565 133.973 278.712 134.4C277.912 134.827 277.512 135.307 277.512 135.84C277.512 136.48 277.965 136.96 278.872 137.28C279.779 137.6 280.979 137.84 282.472 138C283.965 138.16 285.592 138.373 287.352 138.64C289.165 138.853 290.952 139.227 292.712 139.76C294.525 140.24 296.179 140.96 297.672 141.92C299.165 142.88 300.365 144.187 301.272 145.84C302.179 147.44 302.632 149.493 302.632 152C302.632 154.613 301.805 157.067 300.152 159.36C298.499 161.6 295.992 163.413 292.632 164.8C289.272 166.133 285.059 166.8 279.992 166.8ZM326.026 166.8C322.293 166.8 318.613 166.4 314.986 165.6C311.36 164.8 308.426 163.76 306.186 162.48L311.146 150.56C313.226 151.787 315.626 152.747 318.346 153.44C321.12 154.133 323.813 154.48 326.426 154.48C328.613 154.48 330.08 154.293 330.826 153.92C331.626 153.547 332.026 153.04 332.026 152.4C332.026 151.76 331.573 151.307 330.666 151.04C329.76 150.72 328.56 150.48 327.066 150.32C325.573 150.16 323.92 149.973 322.106 149.76C320.346 149.493 318.56 149.12 316.746 148.64C314.933 148.16 313.28 147.44 311.786 146.48C310.293 145.52 309.093 144.24 308.186 142.64C307.28 140.987 306.826 138.907 306.826 136.4C306.826 133.627 307.653 131.12 309.306 128.88C311.013 126.64 313.52 124.853 316.826 123.52C320.186 122.133 324.32 121.44 329.226 121.44C332.426 121.44 335.626 121.733 338.826 122.32C342.026 122.907 344.773 123.813 347.066 125.04L342.106 136.96C339.866 135.733 337.653 134.907 335.466 134.48C333.333 134 331.333 133.76 329.466 133.76C327.173 133.76 325.6 133.973 324.746 134.4C323.946 134.827 323.546 135.307 323.546 135.84C323.546 136.48 324 136.96 324.906 137.28C325.813 137.6 327.013 137.84 328.506 138C330 138.16 331.626 138.373 333.386 138.64C335.2 138.853 336.986 139.227 338.746 139.76C340.56 140.24 342.213 140.96 343.706 141.92C345.2 142.88 346.4 144.187 347.306 145.84C348.213 147.44 348.666 149.493 348.666 152C348.666 154.613 347.84 157.067 346.186 159.36C344.533 161.6 342.026 163.413 338.666 164.8C335.306 166.133 331.093 166.8 326.026 166.8ZM381.421 166V158.24L380.141 156.16V141.44C380.141 139.307 379.474 137.68 378.141 136.56C376.861 135.44 374.754 134.88 371.821 134.88C369.847 134.88 367.847 135.2 365.821 135.84C363.794 136.427 362.061 137.253 360.621 138.32L354.861 126.4C357.421 124.8 360.487 123.573 364.061 122.72C367.634 121.867 371.127 121.44 374.541 121.44C382.061 121.44 387.874 123.12 391.981 126.48C396.141 129.84 398.221 135.173 398.221 142.48V166H381.421ZM369.021 166.8C365.447 166.8 362.461 166.187 360.061 164.96C357.661 163.733 355.847 162.107 354.621 160.08C353.394 158 352.781 155.707 352.781 153.2C352.781 150.373 353.501 147.973 354.941 146C356.381 144.027 358.567 142.533 361.501 141.52C364.487 140.507 368.247 140 372.781 140H381.901V148.72H375.661C373.741 148.72 372.327 149.04 371.421 149.68C370.567 150.267 370.141 151.173 370.141 152.4C370.141 153.413 370.514 154.267 371.261 154.96C372.061 155.6 373.127 155.92 374.461 155.92C375.687 155.92 376.807 155.6 377.821 154.96C378.887 154.267 379.661 153.2 380.141 151.76L382.461 157.12C381.767 160.373 380.301 162.8 378.061 164.4C375.821 166 372.807 166.8 369.021 166.8ZM426.816 166.8C423.029 166.8 419.509 165.893 416.256 164.08C413.056 162.213 410.496 159.6 408.576 156.24C406.656 152.827 405.696 148.773 405.696 144.08C405.696 139.387 406.656 135.36 408.576 132C410.496 128.587 413.056 125.973 416.256 124.16C419.509 122.347 423.029 121.44 426.816 121.44C430.656 121.44 433.802 122.267 436.256 123.92C438.709 125.52 440.522 128 441.696 131.36C442.869 134.667 443.456 138.907 443.456 144.08C443.456 149.307 442.896 153.6 441.776 156.96C440.709 160.32 438.949 162.8 436.496 164.4C434.096 166 430.869 166.8 426.816 166.8ZM431.136 152.72C432.469 152.72 433.669 152.4 434.736 151.76C435.802 151.12 436.656 150.16 437.296 148.88C437.936 147.547 438.256 145.947 438.256 144.08C438.256 142.16 437.936 140.587 437.296 139.36C436.656 138.08 435.802 137.12 434.736 136.48C433.669 135.84 432.469 135.52 431.136 135.52C429.802 135.52 428.602 135.84 427.536 136.48C426.469 137.12 425.616 138.08 424.976 139.36C424.336 140.587 424.016 142.16 424.016 144.08C424.016 145.947 424.336 147.547 424.976 148.88C425.616 150.16 426.469 151.12 427.536 151.76C428.602 152.4 429.802 152.72 431.136 152.72ZM438.816 166V160.08L438.736 144.08L437.936 128.08V106.64H456.016V166H438.816ZM487.942 166.8C482.982 166.8 478.582 165.84 474.742 163.92C470.955 161.947 467.969 159.253 465.782 155.84C463.595 152.427 462.502 148.507 462.502 144.08C462.502 139.653 463.595 135.733 465.782 132.32C467.969 128.907 470.955 126.24 474.742 124.32C478.582 122.4 482.982 121.44 487.942 121.44C492.902 121.44 497.302 122.4 501.142 124.32C504.982 126.24 507.969 128.907 510.102 132.32C512.289 135.733 513.382 139.653 513.382 144.08C513.382 148.507 512.289 152.427 510.102 155.84C507.969 159.253 504.982 161.947 501.142 163.92C497.302 165.84 492.902 166.8 487.942 166.8ZM487.942 152.72C489.275 152.72 490.475 152.4 491.542 151.76C492.609 151.12 493.462 150.16 494.102 148.88C494.742 147.547 495.062 145.947 495.062 144.08C495.062 142.16 494.742 140.587 494.102 139.36C493.462 138.08 492.609 137.12 491.542 136.48C490.475 135.84 489.275 135.52 487.942 135.52C486.609 135.52 485.409 135.84 484.342 136.48C483.275 137.12 482.422 138.08 481.782 139.36C481.142 140.587 480.822 142.16 480.822 144.08C480.822 145.947 481.142 147.547 481.782 148.88C482.422 150.16 483.275 151.12 484.342 151.76C485.409 152.4 486.609 152.72 487.942 152.72ZM519.841 166V122.24H537.041V135.44L534.241 131.68C535.574 128.267 537.707 125.707 540.641 124C543.574 122.293 547.094 121.44 551.201 121.44V137.44C550.401 137.333 549.681 137.253 549.041 137.2C548.454 137.147 547.841 137.12 547.201 137.12C544.481 137.12 542.241 137.84 540.481 139.28C538.774 140.667 537.921 143.093 537.921 146.56V166H519.841ZM574.245 166.8C570.512 166.8 566.832 166.4 563.205 165.6C559.578 164.8 556.645 163.76 554.405 162.48L559.365 150.56C561.445 151.787 563.845 152.747 566.565 153.44C569.338 154.133 572.032 154.48 574.645 154.48C576.832 154.48 578.298 154.293 579.045 153.92C579.845 153.547 580.245 153.04 580.245 152.4C580.245 151.76 579.792 151.307 578.885 151.04C577.978 150.72 576.778 150.48 575.285 150.32C573.792 150.16 572.138 149.973 570.325 149.76C568.565 149.493 566.778 149.12 564.965 148.64C563.152 148.16 561.498 147.44 560.005 146.48C558.512 145.52 557.312 144.24 556.405 142.64C555.498 140.987 555.045 138.907 555.045 136.4C555.045 133.627 555.872 131.12 557.525 128.88C559.232 126.64 561.738 124.853 565.045 123.52C568.405 122.133 572.538 121.44 577.445 121.44C580.645 121.44 583.845 121.733 587.045 122.32C590.245 122.907 592.992 123.813 595.285 125.04L590.325 136.96C588.085 135.733 585.872 134.907 583.685 134.48C581.552 134 579.552 133.76 577.685 133.76C575.392 133.76 573.818 133.973 572.965 134.4C572.165 134.827 571.765 135.307 571.765 135.84C571.765 136.48 572.218 136.96 573.125 137.28C574.032 137.6 575.232 137.84 576.725 138C578.218 138.16 579.845 138.373 581.605 138.64C583.418 138.853 585.205 139.227 586.965 139.76C588.778 140.24 590.432 140.96 591.925 141.92C593.418 142.88 594.618 144.187 595.525 145.84C596.432 147.44 596.885 149.493 596.885 152C596.885 154.613 596.058 157.067 594.405 159.36C592.752 161.6 590.245 163.413 586.885 164.8C583.525 166.133 579.312 166.8 574.245 166.8Z" fill="white"/>
</svg>
