<svg preserveAspectRatio="none" width="100%" height="100%" overflow="visible" style="display: block;" viewBox="0 0 68 84" fill="none" xmlns="http://www.w3.org/2000/svg">
<g id="Group 5">
<path id="Vector 6" d="M40.8686 5.66383C40.7619 5.98241 40.3892 6.19527 40.0419 6.30069C39.9335 6.33413 39.7668 6.12233 39.683 6.13754C39.5194 6.16751 39.5367 6.34468 39.3593 6.36048C39.2996 6.36486 39.0195 6.04763 38.964 6.05857C38.6625 6.12051 38.5893 6.36564 38.3579 6.49358C37.2177 7.12325 36.3036 7.92396 35.3405 8.72935C35.0232 8.99515 34.4087 9.11698 34.2547 9.54434C34.237 9.59448 34.5331 9.81576 34.5498 9.84286C34.8017 10.2605 34.2754 9.73242 34.1377 9.73931C33.5927 9.76804 33.287 10.0642 33.1514 10.4338C33.0945 10.5917 33.7475 10.9575 33.3351 10.8043C33.3071 10.7942 33.0394 10.506 32.9798 10.5106C32.8451 10.5215 32.776 10.7061 32.703 10.7421C32.5608 10.8103 32.5479 10.8309 32.4539 10.9311C32.3229 11.0657 32.0294 11.1047 31.9631 11.3144C31.9498 11.36 32.2886 11.5822 32.2946 11.6787C32.3004 11.7752 32.1551 11.889 32.0437 11.8725C31.9322 11.8559 31.7127 11.6282 31.6513 11.5886C31.1344 11.2526 31.6302 11.9681 31.628 12.0022C31.5702 12.607 30.93 12.6062 30.6258 12.9541C30.3956 13.2189 30.2672 13.6056 30.0303 13.8419C29.747 14.1223 29.3612 14.2319 29.1341 14.5467C29.1097 14.5796 29.4955 14.8552 29.4665 14.8961C29.1582 15.3296 28.7726 15.6902 28.1856 15.8756C28.1264 15.8939 27.8604 15.5693 27.7827 15.5712C27.3137 15.5891 26.3621 15.4332 27.5892 16.7681C27.3917 16.886 27.1616 17.0375 26.7593 16.9445C26.5003 16.8849 26.2425 16.4948 26.2846 16.7385C26.2937 16.793 26.6204 17.0198 26.6116 17.0819C26.5744 17.3433 26.3185 17.4397 26.3275 17.7386C26.33 17.8001 26.6039 18.0247 26.6434 18.0763C26.9612 18.4967 26.204 18.0654 26.132 18.0533C25.5916 17.9675 25.5872 18.2481 25.3988 18.4453C25.3549 18.4909 25.7613 18.7488 25.7319 18.804C25.5747 19.0859 25.3281 19.3044 24.9656 19.3971C24.8841 19.417 24.6217 19.102 24.5672 19.0978C24.3306 19.0826 24.8838 19.6119 24.668 19.607C24.6232 19.6067 24.3737 19.3653 24.3416 19.3441C23.8375 19.0121 24.4256 19.6261 24.4254 19.6545C24.4377 20.0275 23.6588 19.5741 23.5793 19.8541C23.5705 19.8882 23.9467 20.1247 23.9018 20.2028C23.6039 20.7248 23.1023 21.1127 22.4539 21.3185C22.3536 21.3509 22.1488 21.0846 22.1145 21.0621C21.5764 20.7126 22.1755 21.3195 22.18 21.3628C22.1992 21.6901 21.5198 21.3825 22.176 22.1705C21.2602 22.6794 21.0386 23.7928 19.7106 23.9284C19.6945 23.9308 19.3946 23.6374 19.3638 23.6434C18.9898 23.7125 19.5166 24.0994 19.9839 24.7738C20.1011 24.9433 19.2791 24.4222 19.2173 24.3857C18.99 24.2509 18.5555 23.8013 18.507 23.7803C18.121 23.6212 19.6832 24.9658 19.5631 25.1034C19.5568 25.1054 19.2877 24.8369 19.2493 24.8235C19.1289 24.781 19.2109 24.9161 19.0821 24.8648C18.7847 24.7453 18.0076 24.1124 18.3377 24.6197C18.3808 24.6852 19.2796 25.4337 19.1304 25.5197C19.0702 25.5533 18.8951 25.7826 18.785 25.7931C18.6749 25.8037 18.4286 25.5133 18.4125 25.5068C17.8951 25.3408 17.7944 25.1426 17.1687 24.7372C16.5452 24.3336 17.8811 25.4684 17.9987 25.6308C18.1158 25.793 17.7021 25.641 17.5689 25.576C17.4358 25.511 17.2882 25.3163 17.2045 25.2889C16.6554 25.1129 17.7909 25.9394 17.9496 26.1801C18.3259 26.7495 17.2579 25.9959 17.054 26.0348C16.9989 26.0454 17.2451 26.2137 17.2398 26.2617C17.2159 26.449 16.8493 26.2517 17.011 26.6309C17.0372 26.6928 17.529 27.3169 17.0369 27.0081C16.9661 26.9634 16.7476 26.7213 16.6491 26.7235C16.5016 26.7263 16.33 26.8143 16.3406 26.9662C16.3485 27.0784 16.8091 27.3629 16.6189 27.3281C16.5341 27.3124 16.3538 27.0446 16.2141 27.0324C16.0747 27.0198 15.9455 27.1875 15.9005 27.2549C15.8558 27.3224 16.1887 27.5568 16.2049 27.5797C16.2963 27.7123 16.3412 27.9569 16.3319 27.9668C15.9157 28.5148 14.9853 28.5394 14.7136 29.1903C14.6918 29.241 15.0355 29.4967 15.0354 29.5074C15.0512 29.7603 14.2924 28.9044 13.9243 28.7477C14.5868 29.3062 14.4201 29.2582 14.4079 29.4159C14.4026 29.4924 14.6764 29.689 14.6985 29.7158C15.0214 30.1201 14.4857 29.7328 14.3739 29.6561C13.9625 29.374 14.3589 29.8093 14.0834 29.6213C13.8098 29.4349 13.506 29.0429 13.4306 29.1381C13.641 29.3684 14.3089 29.836 14.3468 29.9919C14.4904 30.5809 13.5846 30.6479 13.3505 30.8141C13.1168 30.9798 13.1004 31.0852 12.9089 31.1332C12.563 31.2197 13.0854 31.536 13.1718 31.8546C13.2577 32.1736 12.2055 31.1298 11.9494 30.9395C11.6937 30.749 11.9208 30.9862 11.7684 30.8949C11.6161 30.8035 11.4994 30.6087 11.4005 30.6219C11.3016 30.6351 11.5904 31.163 11.8225 31.4027C12.3142 31.9103 12.9307 32.329 12.6041 32.3069C12.585 32.3053 12.3174 32.0205 12.2589 32.0274C11.8041 32.0911 11.5513 32.3505 11.1227 32.4367C11.0633 32.4482 10.7666 32.1303 10.7284 32.1337C10.3291 32.1686 10.9454 32.5727 11.4491 33.2273C10.6627 32.4881 10.1092 32.1182 9.95909 32.2792C9.86859 32.3757 10.2374 32.6698 10.4302 32.9533C10.4884 33.0387 10.1837 32.8953 10.3389 33.0544C10.8458 33.5746 11.5128 34.0439 11.1206 34.001C11.1025 33.9983 10.8257 33.7127 10.785 33.7227C10.5202 33.7858 11.0715 34.3061 10.9817 34.5471C10.9114 34.736 10.3433 34.6825 10.1453 34.7939C9.23761 33.9895 9.31237 34.325 9.88598 34.939C9.76837 35.0208 9.70459 35.1649 9.52898 35.1896C9.46882 35.1983 9.22525 34.9436 9.19291 34.9229C8.6869 34.5971 9.25779 35.1798 9.26191 35.2234C9.27968 35.6726 8.64154 35.4646 8.88881 36.0958C8.89782 36.1184 9.51859 36.6882 9.00186 36.3444C8.96647 36.3204 8.74644 35.9902 8.62766 36.0804C8.50881 36.1705 7.98773 36.0792 8.14681 36.4894C8.18495 36.5883 8.61643 37.1332 8.14937 36.8552C8.08611 36.8173 7.91429 36.6468 7.80068 36.5724C7.43806 36.336 8.05508 36.9238 7.4638 36.5007C6.87254 36.0777 6.36569 35.8338 6.60528 36.317C6.61187 36.3315 7.08663 36.8136 7.03611 36.8549C6.95502 36.9204 6.75313 36.9371 6.68558 37.0205C6.65342 37.0606 6.98981 37.3127 6.98967 37.3245C6.93791 37.7389 6.49505 37.6767 6.12895 37.8475C6.06121 37.8782 6.36159 38.402 5.93562 38.2022C5.46904 37.9839 4.02205 36.5139 4.17123 37.0864C4.23016 37.3163 6.07831 39.1671 4.90424 38.4544C4.84819 39.0255 4.04397 38.8919 4.09472 39.5587C4.09677 39.5885 4.59989 40.1195 4.55983 40.15C4.49929 40.1944 4.21706 39.9998 4.16564 40.0243C3.94375 40.1213 4.0299 40.4644 3.85619 40.5933C3.79079 40.6427 3.54499 40.3892 3.46696 40.4481C3.38922 40.5072 3.69516 40.8613 3.44138 40.8108C3.24854 40.7716 2.47235 40.2194 2.30354 40.2441C3.00208 40.8651 2.92864 40.9195 3.00908 41.2016C3.02487 41.2561 3.29075 41.4464 3.31082 41.4833C3.39792 41.6381 3.15958 41.5008 3.25979 41.6633C3.28374 41.7024 3.52299 41.9137 3.5561 41.9576C3.84677 42.3388 3.20503 41.9813 3.09354 41.9188C2.66949 41.6821 2.94964 41.9922 2.75745 41.9276C2.56535 41.863 2.46722 41.6207 2.32162 41.6145C2.02018 41.6019 1.89795 41.8189 1.75973 41.9539C1.70606 42.009 2.06062 42.251 2.06036 42.2655C2.03655 42.4562 1.59011 42.2775 2.16918 42.9042C0.448673 41.5377 2.26572 43.1167 1.78584 42.9972C1.74735 42.9871 0.953097 42.3189 0.88408 42.1667C0.815157 42.0146 1.12753 42.1506 1.01215 41.9222C0.985209 41.8685 0.340429 41.1292 0.307851 41.077C0.053439 40.6692 1.23079 41.6787 1.29957 41.7294C2.04452 42.2742 1.36224 41.4637 1.33537 41.3847C1.21202 41.0227 1.48258 41.0453 1.40995 40.7694C1.36382 40.5902 0.607809 39.9117 0.685154 39.8708C0.941819 39.7346 2.0685 40.5992 1.31507 39.5954C1.15458 39.3811 0.284877 38.6889 1.07036 39.1177C1.11985 39.1447 1.81602 39.5625 1.49246 39.1655C1.45163 39.1154 1.20845 38.902 1.19728 38.8736C1.12714 38.6871 1.36197 38.8104 1.33668 38.6522C1.31138 38.4941 1.25425 38.2804 1.41361 38.2653C1.50926 38.2559 2.02144 38.5864 2.15447 38.6586C2.53641 38.8681 2.0802 38.3313 2.50563 38.6272C2.93333 38.9244 3.44682 39.5304 3.80057 39.6344C3.17315 39.0749 2.53402 38.4952 1.90533 37.9299C2.15264 37.6935 2.57821 37.6212 2.77615 37.34C2.80006 37.3045 2.43209 37.0386 2.44897 36.9929C2.52169 36.8016 2.87421 36.8886 2.90919 36.6545C2.93497 36.4722 2.68715 36.0295 2.70292 35.829C3.49014 36.3905 3.40266 35.9955 3.58325 35.9232C3.64619 35.8977 3.83642 36.0704 3.9279 36.0933C4.26834 36.1756 3.5796 35.6716 3.50867 35.5496C3.20663 35.0286 4.66219 36.2869 4.77581 36.0857C4.78233 36.0755 4.10894 35.2882 4.0743 35.2309C3.84621 34.8597 4.35635 35.4507 4.46621 35.4406C4.66689 35.4221 4.91801 35.5074 4.8059 35.18C4.77218 35.0836 4.37153 34.5713 4.80706 34.8247C4.86413 34.8579 5.114 35.0871 5.13571 35.0925C5.50733 35.171 4.71076 34.4639 4.51024 34.1456C4.3098 33.8274 4.97063 34.1894 5.15187 34.3042C5.6214 34.6005 5.28346 34.5094 5.32072 34.5485C5.76465 35.0132 5.76115 34.8502 5.86235 34.8171C6.65535 35.4969 6.69298 35.3591 5.9641 34.78C5.88435 34.7169 5.91034 34.8348 5.86235 34.8171C5.14609 34.0799 5.14065 33.8874 5.9625 34.4029C6.34762 34.6445 6.69504 35.0418 6.69752 34.7492C6.69898 34.6167 6.13336 34.1709 6.04471 33.9748C5.84261 33.5273 6.52015 33.7727 6.57872 33.546C6.59997 33.4638 6.25562 33.2593 6.25995 33.1941C6.27053 33.0203 6.57239 33.1243 6.54995 32.9207C6.54755 32.902 6.21795 32.6528 6.24236 32.6171C6.42138 32.3411 6.80674 32.3026 7.03667 32.0522C7.14762 31.9311 7.17084 31.5606 7.31749 31.4631C7.56982 31.2924 8.25926 31.4158 8.31628 31.1305C8.3548 30.9457 8.02152 30.7005 7.85714 30.4622C7.53811 30.0008 8.42901 30.4642 8.56375 30.5396C8.56816 30.5421 8.54776 30.7124 8.75644 30.7955C9.11642 31.0537 8.56414 30.542 8.56375 30.5396C8.65103 30.588 8.90775 30.4378 8.88562 30.3437C8.87341 30.2924 8.56894 30.0473 8.56812 30.0254C8.55507 29.5111 8.73032 29.1616 9.12031 28.9946C9.13069 28.9948 9.45195 29.2908 9.47226 29.2876C9.76449 29.2494 9.45702 28.7899 9.33956 28.4431C9.22219 28.0964 9.39768 28.0577 10.0322 28.4717C10.0524 28.3057 10.432 28.3761 10.6582 28.4234C10.8845 28.4707 10.2565 27.8973 10.2505 27.8787C10.053 27.2887 10.5377 27.4745 10.8087 27.281C10.9386 27.19 11.048 26.879 11.0884 26.6923C11.1192 26.5438 11.3213 26.6157 11.3059 26.4403C11.304 26.4167 11.0088 26.1792 11.0012 26.1658C10.7506 25.7648 11.4025 26.4249 11.5451 26.5131C12.0635 26.8338 12.3453 26.9981 12.2477 26.6809C12.2255 26.6081 11.302 25.6404 11.2917 25.5341C11.2802 25.3975 11.6152 25.7398 11.594 25.5888C11.5925 25.5761 11.3701 25.3829 11.4203 25.3454C11.6508 25.1688 11.9847 25.0488 12.158 24.807C12.1825 24.7748 11.7973 24.505 11.827 24.4533C11.9664 24.2109 12.1778 23.9967 12.5185 23.9406C12.6034 23.9278 12.8219 24.1749 12.9043 24.2283C13.4036 24.5508 12.8442 23.8934 12.8455 23.8672C12.8602 23.229 13.6879 23.4585 13.7406 22.8413C13.7423 22.8066 13.1926 22.045 13.8438 22.4938C13.8873 22.5235 14.5515 22.9849 14.1928 22.5609C14.1704 22.5344 13.8218 22.3043 13.9196 22.2569C14.0174 22.2094 13.9165 21.9059 14.3488 22.1026C14.4851 22.1644 15.1551 22.6164 14.7612 22.0967C14.7333 22.0609 13.7811 20.9559 14.577 21.5604C14.7079 21.66 15.4919 22.3658 15.1884 21.892C15.1292 21.8005 14.917 21.6855 14.8583 21.5298C14.7673 21.2903 15.0843 21.3578 14.8287 20.9369C14.7832 20.8627 14.3177 20.3078 14.7837 20.6008C14.8566 20.6467 15.1039 20.8989 15.164 20.8901C15.4514 20.8497 15.4267 20.521 15.7573 20.5141C15.8739 20.5111 16.2747 20.9175 16.4437 20.9563C16.6128 20.9951 16.8328 20.9671 16.6945 20.7304C16.5561 20.4936 15.8124 19.9653 15.8434 19.8201C15.9782 19.1894 16.7459 19.1224 17.1754 18.752C17.2392 18.6971 16.9498 18.5345 17.0262 18.4383C17.3071 18.0824 17.5947 17.2944 18.3722 17.4551C18.995 17.5836 19.0493 18.1589 19.377 18.1268C19.5342 18.1105 18.825 17.3195 18.8186 17.2766C18.746 16.8482 19.2225 17.014 19.2776 16.7343C19.2888 16.6765 18.9348 16.4316 18.9479 16.3855C18.9899 16.2255 19.2359 16.2348 19.303 16.1056C19.3324 16.047 19.0795 15.8401 19.1369 15.813C19.2716 15.7455 19.4562 15.7435 19.7758 15.8434C19.805 15.8525 20.0548 16.1836 20.1343 16.116C20.2622 16.0059 20.6259 16.0495 20.5188 15.6992C20.4861 15.5944 19.9271 15.0998 20.3952 15.3481C20.493 15.3999 21.1442 16.0164 20.6571 15.3977C20.5764 15.2947 19.9506 14.4247 20.534 14.7809C20.6875 14.8746 21.2906 15.2994 21.2493 15.1717C21.2417 15.1526 20.916 14.9158 20.9242 14.8473C20.9583 14.6105 21.1291 14.481 21.1708 14.2435C21.1813 14.1796 20.8158 13.9671 20.8414 13.8805C20.9115 13.6421 21.1766 13.5006 21.4196 13.4209C21.5098 13.3921 21.7307 13.6612 21.7627 13.6814C22.2822 14.0118 21.7028 13.4274 21.6877 13.3721C21.602 13.0354 21.9903 13.1779 22.0331 12.9747C22.0457 12.9193 21.7284 12.6874 21.7087 12.6569C21.5207 12.3543 21.9979 12.8762 22.0991 12.8784C22.3846 12.8861 22.4955 12.7124 22.5799 12.5406C22.6105 12.4772 22.2193 12.2347 22.2507 12.1812C22.43 11.8588 22.7101 11.6061 23.1304 11.5072C23.2101 11.4891 23.445 11.7513 23.5141 11.7936C23.9963 12.091 23.5164 11.4832 23.4831 11.4111C23.3306 11.0828 23.6002 11.2443 23.6419 11.1095C23.8419 10.4471 24.5089 9.99876 24.9963 9.63614C25.6298 9.16226 26.2763 8.93073 26.6991 8.3193C26.7263 8.28073 26.3459 8.00918 26.3648 7.97199C26.6256 7.50581 27.1016 7.23973 27.3463 6.75809C27.367 6.71911 26.9952 6.47448 27.0173 6.40213C27.0603 6.25169 27.1965 6.13304 27.3966 6.11866C27.4936 6.11109 27.7159 6.43111 27.8077 6.41839C28.0221 6.38934 28.1613 6.27855 28.2191 6.10585C28.243 6.03172 27.8333 5.81491 27.8907 5.74176C28.2748 5.23734 28.6267 4.71968 29.4871 4.62534C29.5461 4.61892 30.2595 5.19517 30.1891 5.00918C30.0028 4.83597 29.7779 4.63872 29.5759 4.45692C30.074 3.66892 30.9143 3.19445 31.5609 2.53364C31.5881 2.50571 31.1791 2.2356 31.2299 2.17989C31.5233 1.85711 31.702 1.45025 32.359 1.43392C32.4237 1.43184 33.05 2.01295 33.0392 1.82968C33.0367 1.79684 33.0809 1.57408 32.9752 1.4135C32.9588 1.38985 32.6358 1.15349 32.6689 1.09827C32.8664 0.782023 33.1894 0.552613 33.6148 0.437682C33.6841 0.419637 33.9612 0.747405 34.0132 0.736985C34.3802 0.660933 34.3531 0.203196 34.8315 0.242868C35.1529 0.270431 35.6571 0.808322 36.2667 1.20894C36.3527 1.26543 36.4432 1.18703 36.7628 1.45998C37.5667 2.14609 38.3977 2.95347 39.2591 3.6797C39.4446 3.8362 39.3533 3.54433 39.7315 4.00217C39.7566 4.03302 39.8266 4.24802 39.9573 4.40068C40.0475 4.50633 40.3919 4.76188 40.4975 4.90839C40.6029 5.0548 40.3047 4.85143 40.4158 5.03818C40.529 5.22661 40.9135 5.52568 40.8686 5.66383ZM11.672 28.6321C12.0482 28.8226 10.9355 27.8233 11.1289 28.1452C11.1395 28.162 11.6533 28.623 11.672 28.6321ZM3.42397 38.3677C4.0103 38.6998 3.34431 37.9884 2.89757 37.725C2.45125 37.4619 3.24609 38.2671 3.42397 38.3677ZM2.84155 39.759C3.33846 39.9815 1.76284 38.562 1.97079 38.9747C1.98235 38.9982 2.81265 39.7462 2.84155 39.759ZM36.1094 1.69923C36.1252 1.71126 36.1961 1.66001 36.1827 1.64548C35.856 1.29772 35.7146 1.4004 36.1094 1.69923ZM2.29845 41.1704C2.54707 41.3221 2.39404 40.9947 2.08492 40.806C1.83622 40.6542 1.98913 40.9818 2.29845 41.1704ZM16.503 25.5561C16.5208 25.5695 16.5762 25.5369 16.4808 25.4546C16.1735 25.1898 16.2032 25.3293 16.503 25.5561ZM0.724609 42.9968C1.01978 42.7821 2.47779 43.7768 2.07319 43.9375C1.99994 43.9666 1.75371 43.4549 1.57607 43.4177C1.25198 43.3506 2.00614 44.1585 1.45333 43.8946C1.35236 43.8461 0.70485 43.0065 0.723193 42.9947C0.723665 42.9954 0.724137 42.9961 0.724609 42.9968ZM13.0609 29.7728C13.0771 29.7843 13.1471 29.7332 13.1337 29.7187C12.8074 29.3707 12.6663 29.4736 13.0609 29.7728ZM19.5531 23.4883C19.5878 23.5126 19.7471 23.3912 19.7221 23.3607C19.2068 22.7711 18.8831 23.0151 19.5531 23.4883ZM10.1188 34.775C10.4164 35.1598 10.3857 35.2799 9.88672 34.939C9.97122 34.8912 10.0358 34.8249 10.1188 34.775Z" fill="var(--stroke-0, white)"/>
<path id="Vector 7" d="M56.7378 27.0611C56.5583 27.3451 56.1456 27.4629 55.7831 27.4825C55.6699 27.4892 55.5585 27.2438 55.4735 27.2386C55.3075 27.2287 55.2821 27.4049 55.106 27.3779C55.0469 27.3679 54.8505 26.9931 54.7941 26.9905C54.4864 26.9788 54.3569 27.1994 54.1017 27.2685C52.8443 27.6082 51.7657 28.168 50.6384 28.7206C50.2669 28.9031 49.641 28.875 49.3896 29.2533C49.3605 29.2978 49.5953 29.5833 49.605 29.6135C49.7501 30.0792 49.3649 29.4409 49.2295 29.4148C48.6934 29.3128 48.326 29.5275 48.1061 29.8541C48.0132 29.9939 48.5602 30.5049 48.1962 30.2578C48.1714 30.2412 47.9802 29.8975 47.9211 29.8878C47.7878 29.8663 47.6766 30.0291 47.5971 30.0467C47.4428 30.079 47.4253 30.096 47.3102 30.1708C47.1508 30.2703 46.8566 30.2383 46.7421 30.4262C46.7184 30.4672 46.9944 30.7638 46.9772 30.859C46.9599 30.9541 46.7917 31.0299 46.6874 30.9873C46.5831 30.9447 46.4242 30.6712 46.374 30.6181C45.9521 30.1686 46.263 30.9817 46.2528 31.0142C46.0525 31.5878 45.4309 31.4344 45.0526 31.6999C44.7659 31.9022 44.549 32.247 44.2627 32.4201C43.9207 32.6249 43.5198 32.6394 43.2242 32.891C43.1928 32.9171 43.5017 33.2767 43.4638 33.3095C43.0611 33.6571 42.6006 33.9154 41.9863 33.9554C41.9245 33.9591 41.7436 33.5805 41.6676 33.5638C41.2079 33.4694 40.3208 33.0912 41.1944 34.6801C40.9745 34.7475 40.7149 34.8398 40.3464 34.6537C40.109 34.534 39.9517 34.0937 39.9345 34.3404C39.9303 34.3956 40.1936 34.6936 40.1702 34.7519C40.0717 34.9969 39.8003 35.0295 39.7377 35.3219C39.7256 35.3822 39.9379 35.6657 39.9641 35.7252C40.1725 36.2092 39.5399 35.6099 39.4729 35.581C38.9685 35.3688 38.8973 35.6403 38.6673 35.7868C38.6139 35.8207 38.9471 36.168 38.9054 36.2146C38.6855 36.451 38.3939 36.6044 38.0198 36.608C37.9359 36.6079 37.7561 36.2394 37.7042 36.2224C37.478 36.1511 37.8892 36.7971 37.6807 36.7409C37.6373 36.7299 37.4526 36.436 37.4264 36.4078C37.016 35.9652 37.4408 36.7016 37.4338 36.7293C37.3568 37.0944 36.7085 36.4684 36.5646 36.7214C36.5478 36.7524 36.8569 37.0718 36.7946 37.1369C36.3809 37.5729 35.8012 37.83 35.1225 37.8753C35.0174 37.8829 34.8819 37.5755 34.854 37.5454C34.4148 37.0777 34.8519 37.8099 34.8459 37.8531C34.7866 38.1755 34.2001 37.7148 34.6496 38.6365C33.6388 38.9125 33.1582 39.941 31.8362 39.7561C31.82 39.7546 31.5987 39.3982 31.5674 39.3967C31.1876 39.3747 31.607 39.876 31.9001 40.6423C31.9735 40.8349 31.2994 40.1328 31.2481 40.0827C31.0595 39.8976 30.7447 39.3573 30.7025 39.3254C30.3656 39.0789 31.5624 40.7571 31.4129 40.8621C31.4062 40.8626 31.209 40.5376 31.1748 40.5155C31.068 40.4456 31.1155 40.5962 31.0026 40.5157C30.7423 40.3288 30.1384 39.529 30.338 40.1003C30.3644 40.1742 31.0588 41.1153 30.8934 41.1632C30.8269 41.1815 30.6023 41.3625 30.4928 41.3465C30.3834 41.3305 30.2134 40.9898 30.1993 40.9797C29.7364 40.6951 29.6858 40.4787 29.1748 39.9358C28.6654 39.3951 29.6923 40.8156 29.7678 41.0015C29.8429 41.1869 29.4773 40.9407 29.3635 40.8458C29.2497 40.7509 29.1528 40.5266 29.078 40.4801C28.5867 40.1783 29.4925 41.2516 29.5893 41.5232C29.819 42.1659 28.9614 41.1794 28.7541 41.1687C28.6981 41.1658 28.897 41.388 28.8805 41.4332C28.8126 41.6094 28.5036 41.3305 28.5702 41.7373C28.581 41.8037 28.9098 42.527 28.5055 42.1098C28.4474 42.0495 28.2929 41.7623 28.1968 41.7409C28.0528 41.7086 27.8651 41.7531 27.8392 41.9031C27.8202 42.014 28.1997 42.4 28.0233 42.3209C27.9447 42.2855 27.8334 41.9825 27.7006 41.9372C27.5682 41.8918 27.4028 42.0238 27.343 42.0786C27.2835 42.1335 27.551 42.4405 27.5613 42.4666C27.6184 42.6172 27.6037 42.8654 27.5923 42.8728C27.0575 43.3058 26.1481 43.1079 25.729 43.6753C25.6958 43.7194 25.9686 44.0496 25.966 44.06C25.921 44.3093 25.3881 43.2973 25.068 43.0573C25.5782 43.7576 25.4278 43.6713 25.3784 43.8216C25.355 43.8945 25.574 44.1507 25.5891 44.1821C25.8063 44.6517 25.3784 44.1479 25.2881 44.0467C24.9558 43.6747 25.237 44.1919 25.0143 43.9437C24.793 43.6974 24.5914 43.2443 24.4954 43.3188C24.6449 43.5926 25.1821 44.206 25.1817 44.3664C25.1808 44.9726 24.2851 44.8218 24.0182 44.9274C23.7518 45.0327 23.7106 45.1311 23.5132 45.1321C23.1566 45.1336 23.5887 45.5654 23.5966 45.8953C23.604 46.2256 22.8309 44.9612 22.6275 44.7153C22.4246 44.4692 22.5886 44.7538 22.4624 44.6288C22.3363 44.5037 22.2694 44.2868 22.1702 44.2759C22.071 44.2652 22.2256 44.8468 22.3939 45.1348C22.7505 45.745 23.2494 46.2986 22.9375 46.1993C22.9193 46.1932 22.7273 45.8528 22.6689 45.8456C22.212 45.7991 21.9046 45.9907 21.4678 45.9723C21.4074 45.9693 21.195 45.5898 21.1571 45.584C20.761 45.5227 21.2633 46.062 21.5964 46.8178C21.0089 45.9125 20.5594 45.4214 20.3753 45.542C20.2644 45.6141 20.5525 45.9876 20.6722 46.3089C20.7084 46.4057 20.4466 46.1938 20.5594 46.3853C20.9277 47.0114 21.4636 47.6261 21.0929 47.491C21.076 47.4841 20.8753 47.1407 20.8333 47.1407C20.5611 47.1389 20.9725 47.7756 20.8279 47.9882C20.7145 48.1549 20.1756 47.9675 19.9567 48.0285C19.2669 47.031 19.2596 47.3747 19.6703 48.1076C19.5366 48.1591 19.4403 48.2838 19.2639 48.2659C19.2034 48.2601 19.0275 47.9546 19.0011 47.9269C18.5873 47.4898 19.0028 48.1918 18.9964 48.2351C18.9066 48.6756 18.3365 48.3215 18.4261 48.9935C18.4295 49.0176 18.8966 49.7189 18.4767 49.2618C18.4481 49.2301 18.3131 48.8569 18.1762 48.9162C18.0393 48.9754 17.555 48.7625 17.6117 49.1988C17.6252 49.304 17.9143 49.9361 17.527 49.5547C17.4746 49.5028 17.3484 49.2963 17.2558 49.197C16.96 48.881 17.4191 49.5988 16.9457 49.0471C16.4723 48.4953 16.0382 48.1375 16.1557 48.664C16.1587 48.6796 16.5048 49.261 16.4459 49.289C16.3516 49.3333 16.1515 49.3014 16.066 49.3664C16.0252 49.3977 16.2918 49.7226 16.2889 49.734C16.1398 50.1242 15.7246 49.9582 15.3283 50.0368C15.2552 50.0505 15.4221 50.6308 15.056 50.3352C14.6549 50.012 13.6 48.2395 13.6084 48.8311C13.6109 49.0683 14.9646 51.3063 13.9943 50.3343C13.8037 50.8756 13.0545 50.5542 12.9448 51.2139C12.9397 51.2433 13.3018 51.8789 13.2556 51.899C13.1862 51.9277 12.9585 51.6714 12.9027 51.6829C12.6641 51.7242 12.666 52.078 12.4666 52.1618C12.3913 52.1942 12.213 51.8893 12.1232 51.928C12.0336 51.9668 12.2463 52.3836 12.0119 52.2741C11.8339 52.1901 11.2118 51.4688 11.0419 51.4526C11.5723 52.2221 11.488 52.2574 11.4989 52.5506C11.5013 52.6073 11.7141 52.8555 11.7248 52.8961C11.7725 53.0672 11.5737 52.8771 11.6323 53.0587C11.6463 53.1024 11.8283 53.3647 11.85 53.4152C12.0414 53.8547 11.5034 53.3546 11.41 53.2673C11.0546 52.9363 11.2528 53.3042 11.0815 53.1957C10.9103 53.0871 10.8728 52.8285 10.7329 52.7877C10.4431 52.7037 10.2727 52.8853 10.1063 52.9834C10.041 53.0242 10.3276 53.3437 10.324 53.3577C10.2554 53.5372 9.86438 53.2573 10.2774 54.0039C8.93218 52.2667 10.3205 54.2333 9.88294 54.0029C9.84795 53.984 9.23586 53.1457 9.20511 52.9814C9.17443 52.8173 9.44538 53.0238 9.38777 52.7745C9.37442 52.7159 8.92443 51.8442 8.90522 51.7858C8.75534 51.3291 9.65816 52.5901 9.71286 52.6558C10.3065 53.3624 9.83706 52.4126 9.8298 52.3295C9.79629 51.9485 10.0537 52.035 10.0489 51.7497C10.0468 51.5646 9.47431 50.7255 9.55916 50.7043C9.8409 50.6331 10.729 51.7414 10.2366 50.587C10.1318 50.3406 9.45213 49.461 10.1128 50.0647C10.1544 50.1027 10.7309 50.6744 10.5113 50.2117C10.4836 50.1534 10.2983 49.8881 10.2942 49.8578C10.2705 49.66 10.4692 49.8357 10.4824 49.6761C10.4955 49.5165 10.4909 49.2953 10.6493 49.3187C10.7444 49.3324 11.1631 49.7754 11.2751 49.8772C11.5961 50.1717 11.2809 49.5417 11.6236 49.9304C11.9681 50.321 12.3224 51.0319 12.6411 51.2172C12.1652 50.5243 11.6826 49.8089 11.2068 49.1101C11.5033 48.9395 11.9338 48.9708 12.1931 48.7448C12.2248 48.716 11.9308 48.3701 11.9581 48.3298C12.0743 48.1612 12.396 48.3297 12.4857 48.1108C12.5542 47.9399 12.4191 47.4508 12.4822 47.2599C13.1129 47.9928 13.122 47.5883 13.3146 47.5612C13.3819 47.5514 13.5254 47.7645 13.6088 47.8085C13.9199 47.9696 13.3711 47.3159 13.3313 47.1806C13.1621 46.6026 14.2758 48.1716 14.4341 48.0033C14.4429 47.9949 13.9765 47.0698 13.9566 47.0059C13.8235 46.591 14.1781 47.2866 14.2872 47.3029C14.4865 47.3328 14.71 47.4755 14.6792 47.1309C14.6694 47.0292 14.4025 46.4361 14.765 46.7861C14.8125 46.8319 15.0006 47.1141 15.0204 47.1244C15.3626 47.2893 14.7575 46.4127 14.6386 46.0558C14.5198 45.699 15.0753 46.2081 15.224 46.3628C15.6093 46.7624 15.3029 46.5934 15.3297 46.6402C15.6501 47.1973 15.6855 47.0383 15.7917 47.0302C16.3998 47.8794 16.4692 47.7546 15.8994 47.0184C15.837 46.9381 15.8341 47.0588 15.7917 47.0302C15.2718 46.1435 15.3124 45.9553 15.9877 46.6518C16.3041 46.9783 16.5468 47.447 16.619 47.1633C16.652 47.035 16.2089 46.4672 16.1696 46.2557C16.08 45.7729 16.6795 46.1727 16.7904 45.9665C16.8306 45.8917 16.545 45.611 16.5647 45.5488C16.6164 45.3825 16.8848 45.5555 16.9115 45.3524C16.9136 45.3336 16.6529 45.013 16.6852 44.9842C16.9248 44.7588 17.3082 44.8132 17.5912 44.6249C17.7278 44.5338 17.8387 44.1795 18.0044 44.1197C18.2901 44.0141 18.9303 44.2982 19.0536 44.0348C19.1351 43.8645 18.8699 43.547 18.767 43.2763C18.5672 42.7521 19.3219 43.4145 19.4348 43.5199C19.4385 43.5234 19.3781 43.6839 19.5609 43.8144C19.849 44.1509 19.4346 43.5224 19.4348 43.5199C19.508 43.5877 19.7932 43.503 19.7941 43.4063C19.7945 43.3536 19.5572 43.043 19.5616 43.0215C19.6715 42.519 19.925 42.2213 20.3436 42.1521C20.3536 42.1547 20.5951 42.5188 20.6156 42.5205C20.9085 42.5531 20.7194 42.0336 20.688 41.6688C20.6566 41.3041 20.8363 41.3083 21.3538 41.8616C21.413 41.7052 21.7649 41.864 21.9733 41.9639C22.1818 42.0638 21.7086 41.3572 21.7072 41.3377C21.656 40.7177 22.0825 41.0136 22.3918 40.8903C22.5396 40.8329 22.7199 40.5569 22.8037 40.3852C22.8691 40.2483 23.0482 40.3664 23.0751 40.1923C23.0788 40.169 22.8487 39.8679 22.8445 39.8531C22.6968 39.404 23.1725 40.2004 23.29 40.32C23.717 40.7551 23.9515 40.9818 23.9323 40.6505C23.9281 40.5745 23.2619 39.4146 23.2773 39.3089C23.2986 39.1735 23.5423 39.5858 23.5577 39.434C23.5593 39.4214 23.3894 39.1807 23.4471 39.1562C23.7131 39.0397 24.0659 39.0027 24.2918 38.8093C24.3233 38.7837 24.0135 38.43 24.0547 38.3868C24.2479 38.1846 24.5042 38.027 24.8484 38.0537C24.934 38.0615 25.0873 38.3536 25.1546 38.4251C25.5626 38.8573 25.1761 38.0855 25.1836 38.0604C25.35 37.4441 26.099 37.8643 26.2974 37.2773C26.3073 37.2441 25.9549 36.3734 26.4805 36.9645C26.5156 37.0037 27.0507 37.6102 26.8034 37.1129C26.7879 37.0818 26.5042 36.7753 26.6106 36.7525C26.7168 36.7297 26.6912 36.4109 27.0641 36.705C27.1818 36.7975 27.7247 37.3961 27.4661 36.7975C27.4475 36.7561 26.7862 35.456 27.415 36.2327C27.5183 36.3607 28.1116 37.233 27.9297 36.7005C27.8941 36.5976 27.7153 36.4353 27.6955 36.2701C27.6642 36.0159 27.956 36.1569 27.808 35.6872C27.7815 35.6043 27.4618 34.9544 27.8444 35.3501C27.9044 35.4121 28.0843 35.7159 28.1449 35.7217C28.4336 35.7509 28.488 35.4259 28.8107 35.4979C28.9246 35.5229 29.217 36.0131 29.3719 36.091C29.5268 36.169 29.7472 36.1942 29.6693 35.9314C29.5913 35.6685 28.995 34.9781 29.0597 34.8445C29.3409 34.2641 30.1025 34.382 30.6079 34.1247C30.6829 34.0865 30.4406 33.8597 30.5378 33.7844C30.8954 33.5057 31.3625 32.809 32.0793 33.1504C32.6535 33.4237 32.5691 33.9953 32.895 34.0422C33.0516 34.0639 32.5514 33.1267 32.5554 33.0834C32.587 32.6501 33.0103 32.9247 33.1304 32.6662C33.1551 32.6127 32.8697 32.2905 32.8934 32.2488C32.9723 32.1034 33.209 32.1711 33.305 32.0617C33.3474 32.0118 33.1511 31.7505 33.2134 31.7379C33.3602 31.7044 33.54 31.7465 33.8267 31.9197C33.8528 31.9355 34.0165 32.3166 34.1098 32.2699C34.2603 32.1935 34.6031 32.3225 34.5826 31.9568C34.5758 31.8472 34.1508 31.2336 34.5462 31.5863C34.6288 31.6599 35.1144 32.4139 34.7888 31.697C34.7349 31.5777 34.3346 30.5836 34.8162 31.0685C34.943 31.1961 35.4274 31.7524 35.4178 31.6186C35.4149 31.5982 35.1551 31.2907 35.1794 31.2261C35.2689 31.0041 35.4657 30.9191 35.5628 30.6984C35.5882 30.6388 35.2838 30.3453 35.3294 30.2674C35.4543 30.0525 35.7454 29.9783 36.0004 29.9588C36.0949 29.9523 36.2453 30.2663 36.2716 30.2936C36.6974 30.7383 36.274 30.0326 36.2725 29.9753C36.2695 29.6279 36.6126 29.8589 36.7026 29.6718C36.7281 29.621 36.4752 29.3201 36.4634 29.2857C36.3529 28.947 36.6919 29.5677 36.7897 29.5939C37.0651 29.6695 37.2142 29.5272 37.3371 29.3805C37.382 29.3261 37.0598 28.9974 37.1031 28.9529C37.3541 28.6826 37.6864 28.5039 38.1181 28.5081C38.1998 28.5095 38.3655 28.8201 38.4225 28.8777C38.8199 29.2815 38.4987 28.5767 38.4835 28.4988C38.4137 28.1436 38.637 28.3647 38.7097 28.2437C39.0618 27.6481 39.8164 27.3717 40.3762 27.1357C41.1044 26.8265 41.7874 26.7557 42.3437 26.2627C42.3793 26.2317 42.0746 25.8773 42.1019 25.8457C42.4663 25.4551 42.992 25.3101 43.3445 24.9007C43.3739 24.8678 43.071 24.5416 43.1097 24.4766C43.1874 24.3407 43.348 24.258 43.5457 24.2917C43.6417 24.3075 43.7813 24.6712 43.8735 24.6808C44.0886 24.7037 44.2503 24.6293 44.3476 24.4753C44.3884 24.409 44.0422 24.1008 44.1154 24.0434C44.6086 23.6451 45.0738 23.2262 45.9319 23.3397C45.9908 23.3475 46.5462 24.0772 46.5222 23.8798C46.3825 23.6672 46.2112 23.422 46.0583 23.1973C46.7298 22.5507 47.659 22.2902 48.4445 21.8026C48.4775 21.7819 48.1447 21.4221 48.2073 21.3801C48.5692 21.1366 48.8398 20.7841 49.4817 20.9248C49.545 20.9382 50.0148 21.6518 50.048 21.4713C50.0534 21.4388 50.1494 21.233 50.0851 21.0518C50.0747 21.0249 49.8174 20.7184 49.8627 20.6727C50.1299 20.4126 50.4982 20.2668 50.9388 20.2566C51.0103 20.2556 51.2013 20.6399 51.2544 20.6422C51.6289 20.6559 51.7116 20.2048 52.1668 20.3574C52.4724 20.4608 52.8338 21.1033 53.3304 21.6377C53.4005 21.7131 53.507 21.6585 53.7524 21.9998C54.3696 22.8577 54.9842 23.8399 55.6477 24.7505C55.7905 24.9467 55.7714 24.6415 56.0295 25.1763C56.0466 25.2122 56.0634 25.4377 56.1538 25.6171C56.2163 25.7412 56.4899 26.0715 56.5575 26.239C56.625 26.4063 56.3838 26.1377 56.4473 26.3456C56.5122 26.5555 56.8143 26.9376 56.7378 27.0611ZM22.9081 42.4083C23.2281 42.6829 22.3857 41.4472 22.4967 41.8059C22.5031 41.8247 22.8922 42.3949 22.9081 42.4083ZM12.5773 49.8972C13.0676 50.3595 12.5904 49.5099 12.2193 49.1476C11.8485 48.7858 12.4285 49.7572 12.5773 49.8972ZM11.68 51.1097C12.1096 51.4442 10.9178 49.69 11.0213 50.1404C11.027 50.166 11.6551 51.0903 11.68 51.1097ZM53.0608 22.0764C53.0733 22.0918 53.1543 22.059 53.1447 22.0416C52.9104 21.626 52.7486 21.692 53.0608 22.0764ZM10.8162 52.3509C11.0215 52.5575 10.9509 52.203 10.6957 51.9461C10.4903 51.7395 10.5608 52.094 10.8162 52.3509ZM28.3331 40.5723C28.3472 40.5897 28.4088 40.5712 28.3358 40.4685C28.1003 40.1381 28.096 40.2807 28.3331 40.5723ZM8.85238 53.7496C9.19024 53.6114 10.3691 54.925 9.93787 54.9846C9.8598 54.9954 9.74263 54.4398 9.57898 54.3613C9.28024 54.2188 9.82008 55.1833 9.3461 54.7952C9.25961 54.724 8.83089 53.7543 8.85151 53.7472C8.8518 53.748 8.85209 53.7488 8.85238 53.7496ZM23.9851 43.8471C23.9981 43.8622 24.0783 43.8291 24.0687 43.8119C23.8348 43.3962 23.6732 43.4625 23.9851 43.8471ZM31.7881 39.2912C31.816 39.3231 31.9997 39.2431 31.9827 39.2076C31.6228 38.5121 31.2502 38.6719 31.7881 39.2912ZM19.9355 48.0039C20.1328 48.4485 20.0744 48.5578 19.671 48.1079C19.7645 48.0815 19.843 48.0325 19.9355 48.0039Z" fill="var(--stroke-0, white)"/>
<path id="Vector 8" d="M67.0495 51.6242C66.8074 51.8571 66.3785 51.8733 66.0219 51.8059C65.9103 51.7854 65.8606 51.5205 65.7793 51.4952C65.6205 51.446 65.5537 51.611 65.3892 51.5429C65.3342 51.5191 65.2328 51.1083 65.1786 51.0923C64.8826 51.0076 64.7043 51.191 64.44 51.1973C63.1378 51.2275 61.9569 51.514 60.7303 51.782C60.326 51.8707 59.7249 51.6942 59.3906 52.0017C59.3517 52.038 59.5117 52.3712 59.5139 52.4029C59.5438 52.8897 59.3218 52.178 59.1966 52.1204C58.7002 51.8935 58.2922 52.0145 58.0008 52.2793C57.8772 52.3929 58.2867 53.0195 57.9922 52.6928C57.972 52.6708 57.8682 52.2914 57.8132 52.2679C57.6888 52.2153 57.542 52.3468 57.4606 52.345C57.303 52.3396 57.282 52.3519 57.1524 52.3971C56.9739 52.4558 56.6957 52.3546 56.5398 52.5097C56.5069 52.5439 56.7044 52.8977 56.665 52.9861C56.6255 53.0744 56.444 53.1079 56.3529 53.0417C56.2618 52.9754 56.1726 52.6719 56.1365 52.6083C55.8339 52.0713 55.9421 52.935 55.9244 52.9642C55.5931 53.4735 55.0261 53.1764 54.5953 53.344C54.2687 53.4722 53.9759 53.7554 53.6566 53.8552C53.2756 53.9726 52.8829 53.8911 52.5358 54.065C52.499 54.0829 52.7133 54.5058 52.6687 54.5286C52.1948 54.7702 51.686 54.9112 51.0799 54.8037C51.0189 54.7926 50.9335 54.3817 50.8637 54.3474C50.4397 54.1462 49.6684 53.5674 50.138 55.3187C49.9084 55.3318 49.6343 55.3596 49.3208 55.0909C49.1188 54.9181 49.0709 54.4531 48.9954 54.6885C48.9782 54.7411 49.1628 55.0933 49.1263 55.1444C48.9722 55.3588 48.7008 55.3258 48.5704 55.5949C48.5442 55.6505 48.6829 55.9764 48.6941 56.0404C48.7811 56.5602 48.3096 55.8273 48.2514 55.7833C47.8121 55.4571 47.6783 55.7037 47.42 55.7912C47.36 55.8114 47.6008 56.2281 47.5492 56.2634C47.2793 56.4406 46.9596 56.5201 46.5954 56.4344C46.514 56.4142 46.4272 56.0136 46.3808 55.9846C46.1781 55.8616 46.4235 56.5869 46.2344 56.4827C46.1949 56.4616 46.0855 56.1321 46.0668 56.0985C45.7737 55.5708 46.0107 56.3873 45.9974 56.4125C45.8356 56.7488 45.3552 55.9863 45.1551 56.1976C45.1315 56.2237 45.3555 56.6076 45.2794 56.656C44.7738 56.9808 44.1495 57.0924 43.4796 56.9746C43.3756 56.9569 43.3174 56.6261 43.2974 56.5902C42.9823 56.0313 43.2323 56.8466 43.2162 56.8871C43.0818 57.1861 42.622 56.5989 42.8388 57.6011C41.7914 57.6282 41.0795 58.5125 39.8396 58.0179C39.8243 58.0126 39.6943 57.6137 39.6643 57.6047C39.3007 57.4928 39.5885 58.0796 39.6905 58.8938C39.7159 59.0983 39.2286 58.2558 39.1907 58.1949C39.0517 57.9702 38.8747 57.3704 38.8413 57.3294C38.5729 57.0097 39.3351 58.9248 39.1649 58.9911C39.1584 58.99 39.0442 58.6274 39.0164 58.5977C38.9293 58.5044 38.9395 58.662 38.849 58.5569C38.6408 58.3134 38.2449 57.3926 38.3026 57.9951C38.3106 58.0731 38.7607 59.1526 38.5887 59.1597C38.5197 59.1617 38.2584 59.2839 38.1559 59.2422C38.0535 59.2006 37.9695 58.8292 37.9583 58.816C37.5765 58.4293 37.579 58.207 37.2122 57.558C36.8463 56.9115 37.505 58.5359 37.5341 58.7343C37.5628 58.9323 37.2664 58.606 37.1785 58.4868C37.0906 58.3675 37.05 58.1266 36.9884 58.0636C36.5832 57.6534 37.2071 58.9116 37.2363 59.1985C37.3062 59.8774 36.7085 58.7149 36.5097 58.6551C36.456 58.639 36.5963 58.9021 36.5694 58.9422C36.4615 59.0971 36.2278 58.7525 36.1956 59.1635C36.1902 59.2305 36.3372 60.0114 36.044 59.5098C36.0019 59.4374 35.9203 59.1217 35.832 59.078C35.6999 59.0123 35.5071 59.0108 35.4462 59.1503C35.4012 59.2535 35.6778 59.7188 35.5253 59.5999C35.4574 59.5468 35.4216 59.226 35.3034 59.1504C35.1857 59.0747 34.9935 59.1635 34.9224 59.2025C34.8515 59.2416 35.0381 59.6035 35.0419 59.6313C35.0615 59.7912 34.9881 60.0287 34.9752 60.0332C34.3526 60.3263 33.5166 59.9173 32.9743 60.3685C32.9316 60.4033 33.1178 60.7891 33.1128 60.7985C33.0097 61.03 32.7334 59.9201 32.4797 59.6107C32.8083 60.4125 32.6828 60.2927 32.599 60.4269C32.5588 60.4922 32.7105 60.7932 32.7176 60.8273C32.8166 61.3351 32.5212 60.7438 32.4576 60.624C32.2236 60.1835 32.3733 60.7529 32.2162 60.4587C32.06 60.1668 31.9722 59.6787 31.8613 59.7282C31.9411 60.0297 32.3167 60.7534 32.2781 60.9091C32.1327 61.4977 31.2988 61.1378 31.0144 61.1767C30.7305 61.2154 30.6671 61.3012 30.4752 61.2551C30.1285 61.1716 30.4452 61.6939 30.3742 62.0162C30.3027 62.3387 29.8533 60.9265 29.7144 60.6392C29.5759 60.3519 29.6674 60.6673 29.5746 60.5158C29.4819 60.3643 29.4687 60.1377 29.3749 60.1035C29.2811 60.0694 29.2927 60.6711 29.3875 60.9909C29.5884 61.6685 29.9409 62.3251 29.6617 62.1543C29.6454 62.144 29.5401 61.7677 29.4851 61.7468C29.0525 61.5927 28.7083 61.7055 28.2885 61.5835C28.2305 61.5662 28.1147 61.1471 28.0792 61.1324C27.7092 60.9785 28.0684 61.622 28.2118 62.4354C27.857 61.4161 27.5376 60.832 27.33 60.9052C27.2051 60.9489 27.3959 61.3802 27.4355 61.7208C27.4476 61.8234 27.2439 61.5553 27.3078 61.7681C27.5162 62.464 27.8902 63.1887 27.5624 62.9691C27.5476 62.9584 27.4345 62.5771 27.3938 62.567C27.1298 62.5004 27.3776 63.2168 27.1864 63.3888C27.0366 63.5237 26.5579 63.2133 26.3308 63.2203C25.8987 62.0872 25.8096 62.4192 26.0338 63.2289C25.8917 63.247 25.7684 63.3452 25.6013 63.2858C25.544 63.2657 25.446 62.9271 25.4269 62.8938C25.1293 62.3707 25.3655 63.1515 25.349 63.1921C25.1568 63.5985 24.6874 63.1186 24.6143 63.7927C24.6119 63.8169 24.8983 64.6093 24.5995 64.0653C24.5792 64.0277 24.5371 63.6331 24.39 63.658C24.243 63.6829 23.8234 63.3607 23.7745 63.798C23.7625 63.9033 23.8926 64.5861 23.6074 64.1234C23.5688 64.0605 23.4955 63.8299 23.4292 63.7113C23.2172 63.3339 23.492 64.1405 23.1638 63.4918C22.8356 62.8431 22.4993 62.3922 22.4879 62.9315C22.487 62.9474 22.6846 63.5945 22.6208 63.6077C22.5185 63.6282 22.3319 63.5495 22.2334 63.5922C22.1863 63.6129 22.3677 63.9921 22.3622 64.0024C22.1244 64.3458 21.7607 64.0857 21.3571 64.0675C21.2828 64.0634 21.3066 64.6668 21.0215 64.2925C20.7091 63.8829 20.107 61.91 19.9742 62.4866C19.92 62.7176 20.7013 65.2138 19.9906 64.0385C19.6765 64.5188 19.0255 64.028 18.7618 64.6426C18.7498 64.6699 18.9499 65.3735 18.9003 65.382C18.8261 65.3933 18.666 65.0901 18.6091 65.0881C18.3675 65.0713 18.285 65.4153 18.0714 65.4492C17.9905 65.4627 17.89 65.1241 17.7936 65.1402C17.6973 65.1566 17.8046 65.6121 17.603 65.4499C17.4502 65.3259 17.0179 64.4771 16.8568 64.4208C17.1885 65.2946 17.0982 65.3088 17.0389 65.5961C17.0277 65.6518 17.1752 65.9435 17.176 65.9855C17.1815 66.1631 17.0338 65.9311 17.0474 66.1214C17.0505 66.1672 17.1647 66.4652 17.1738 66.5195C17.2549 66.992 16.8516 66.378 16.7817 66.271C16.5154 65.8648 16.6202 66.2694 16.4797 66.1231C16.3394 65.9769 16.3646 65.7167 16.2384 65.6438C15.977 65.4931 15.7682 65.6289 15.5832 65.6845C15.5101 65.7086 15.7123 66.0872 15.7054 66.0999C15.596 66.2579 15.283 65.8929 15.5062 66.7164C14.6138 64.7087 15.4934 66.9495 15.1234 66.6214C15.0939 66.5947 14.6992 65.6346 14.7085 65.4678C14.7179 65.3011 14.9318 65.5662 14.9352 65.3104C14.9363 65.2502 14.707 64.2964 14.7023 64.2351C14.6656 63.7559 15.2418 65.1957 15.2793 65.2725C15.6874 66.1003 15.4578 65.066 15.4706 64.9835C15.5289 64.6056 15.7582 64.7509 15.8216 64.4727C15.8637 64.2925 15.5077 63.3411 15.5951 63.3407C15.8857 63.3387 16.4841 64.6267 16.281 63.3882C16.2379 63.1239 15.7875 62.1077 16.2853 62.8514C16.3166 62.8983 16.7403 63.5909 16.6373 63.0892C16.6242 63.026 16.5075 62.7242 16.5108 62.6938C16.5349 62.4961 16.686 62.7141 16.7368 62.5622C16.7876 62.4103 16.8359 62.1944 16.9841 62.2549C17.0733 62.2908 17.3742 62.8208 17.4587 62.9464C17.7003 63.309 17.5444 62.6219 17.7845 63.0811C18.026 63.5426 18.2006 64.3175 18.466 64.5735C18.1689 63.7871 17.8708 62.9773 17.5753 62.1852C17.9039 62.0902 18.3146 62.2231 18.6203 62.0654C18.6579 62.0451 18.4548 61.6391 18.4909 61.6064C18.644 61.4704 18.9162 61.7107 19.0555 61.5195C19.1628 61.3698 19.1481 60.8627 19.2549 60.6923C19.6927 61.5544 19.798 61.1638 19.9915 61.1834C20.0592 61.1898 20.1478 61.431 20.2183 61.4936C20.482 61.7242 20.1048 60.9586 20.0984 60.8177C20.0719 60.216 20.7795 62.0052 20.9734 61.8795C20.9839 61.8735 20.7515 60.8639 20.7473 60.797C20.717 60.3624 20.8956 61.1225 20.9976 61.1643C21.1841 61.2408 21.3672 61.4327 21.4194 61.0906C21.4341 60.9896 21.3162 60.35 21.5849 60.7763C21.6201 60.8321 21.7355 61.1509 21.7522 61.1657C22.0453 61.4074 21.6666 60.4118 21.6362 60.0369C21.6058 59.6621 22.024 60.2889 22.1315 60.4745C22.4105 60.9545 22.1531 60.7173 22.1681 60.7692C22.3464 61.3866 22.4188 61.2406 22.5238 61.2581C22.912 62.2277 23.0091 62.1231 22.6312 61.2722C22.5897 61.1794 22.5581 61.2959 22.5238 61.2581C22.2302 60.273 22.3145 60.0999 22.8043 60.9373C23.0338 61.3298 23.1578 61.8428 23.2955 61.5845C23.3582 61.4677 23.0632 60.8108 23.0754 60.5959C23.1034 60.1057 23.5904 60.6368 23.7472 60.4631C23.8041 60.4 23.5936 60.0593 23.6276 60.0035C23.7174 59.8544 23.9368 60.0864 24.0112 59.8955C24.0178 59.8777 23.841 59.5043 23.8792 59.4839C24.1656 59.3222 24.525 59.4665 24.8447 59.351C24.9991 59.295 25.1913 58.9774 25.3664 58.9588C25.6691 58.9243 26.2231 59.3529 26.4057 59.1265C26.5254 58.9805 26.3435 58.6089 26.3081 58.3216C26.239 57.7648 26.8141 58.588 26.8986 58.7172C26.9013 58.7215 26.8044 58.8631 26.9509 59.0333C27.1504 59.4288 26.8978 58.7196 26.8986 58.7172C26.9535 58.8006 27.2506 58.7863 27.2746 58.6926C27.2875 58.6415 27.1311 58.2833 27.1405 58.2635C27.3671 57.8016 27.6842 57.5729 28.1072 57.6055C28.1163 57.6104 28.264 58.0216 28.2835 58.0281C28.5602 58.1296 28.5004 57.5799 28.5569 57.2182C28.6133 56.8565 28.7868 56.9035 29.1576 57.5641C29.2523 57.4264 29.5562 57.6645 29.7348 57.8112C29.9135 57.9579 29.6223 57.1589 29.6257 57.1396C29.7237 56.5252 30.0673 56.9143 30.3971 56.8683C30.5544 56.8478 30.7953 56.6227 30.9175 56.4759C31.0137 56.3586 31.1595 56.5159 31.227 56.3533C31.2363 56.3315 31.0846 55.9842 31.084 55.9688C31.0476 55.4974 31.3198 56.3844 31.4053 56.5285C31.7164 57.0528 31.8901 57.3289 31.9504 57.0026C31.9645 56.9277 31.5939 55.6425 31.634 55.5435C31.687 55.4171 31.8254 55.8756 31.8766 55.7319C31.8811 55.72 31.7734 55.4457 31.8354 55.4357C32.1214 55.3859 32.4729 55.4341 32.7384 55.3001C32.7751 55.2828 32.5586 54.8654 32.6088 54.8333C32.8446 54.683 33.1312 54.591 33.4591 54.699C33.5403 54.727 33.6196 55.0471 33.6679 55.1327C33.9611 55.6497 33.7697 54.8079 33.783 54.7854C34.0915 54.2264 34.7188 54.8131 35.0513 54.2904C35.0689 54.2604 34.9342 53.3309 35.3037 54.0301C35.3285 54.0766 35.7036 54.7932 35.5819 54.2512C35.5743 54.2173 35.3719 53.852 35.4805 53.8553C35.5892 53.8585 35.6403 53.5427 35.9324 53.9172C36.0246 54.0351 36.4092 54.7459 36.3007 54.1029C36.2926 54.0583 35.9601 52.638 36.3857 53.5422C36.4556 53.6911 36.8238 54.6797 36.7741 54.1192C36.764 54.0107 36.6291 53.8106 36.6492 53.6454C36.6794 53.391 36.9291 53.5975 36.8974 53.1061C36.8914 53.0193 36.7358 52.3119 37.0131 52.7874C37.0566 52.8619 37.1589 53.1998 37.2163 53.2199C37.4898 53.3171 37.6201 53.0144 37.9163 53.1613C38.021 53.2127 38.1881 53.7584 38.32 53.8711C38.4519 53.9837 38.6598 54.0607 38.6468 53.7869C38.6338 53.513 38.2192 52.7004 38.3139 52.586C38.7253 52.0894 39.4369 52.3855 39.9891 52.256C40.071 52.2368 39.8897 51.9588 40.0021 51.9088C40.4158 51.7234 41.0355 51.1581 41.6503 51.6605C42.1428 52.0628 41.9246 52.5978 42.2299 52.7211C42.3768 52.7794 42.1144 51.75 42.1286 51.7089C42.2626 51.2957 42.6082 51.6632 42.7865 51.4408C42.8232 51.3947 42.6228 51.0138 42.6558 50.979C42.7671 50.8566 42.9808 50.9787 43.1001 50.8953C43.1533 50.8569 43.0249 50.5565 43.0883 50.559C43.2389 50.5615 43.4035 50.6452 43.6406 50.8818C43.6622 50.9033 43.7303 51.3124 43.8321 51.2894C43.9965 51.251 44.2987 51.458 44.3659 51.0979C44.3854 50.9899 44.1189 50.2927 44.4188 50.7295C44.4816 50.8207 44.7734 51.6687 44.6281 50.8948C44.6042 50.7661 44.4523 49.7052 44.8045 50.291C44.8972 50.4451 45.2351 51.1008 45.2576 50.9686C45.2597 50.9481 45.0807 50.5875 45.1196 50.5305C45.2595 50.3364 45.4709 50.3007 45.6178 50.1095C45.6567 50.0577 45.431 49.7001 45.4938 49.6353C45.6663 49.4564 45.9668 49.4537 46.2191 49.4956C46.3124 49.5117 46.3836 49.8525 46.4026 49.8853C46.7102 50.4186 46.4672 49.6324 46.4794 49.5764C46.5593 49.2383 46.8375 49.5444 46.9695 49.3841C47.0063 49.3408 46.8324 48.9883 46.8291 48.9522C46.8025 48.5969 46.9839 49.2804 47.0726 49.3293C47.322 49.4683 47.5007 49.3656 47.6551 49.2525C47.7116 49.2104 47.4771 48.8143 47.5297 48.7814C47.8379 48.5787 48.2032 48.4844 48.6215 48.5913C48.7005 48.6122 48.7874 48.9533 48.829 49.0228C49.1188 49.5097 48.9748 48.7487 48.9786 48.6695C48.9955 48.3078 49.1596 48.5758 49.2591 48.4756C49.743 47.9811 50.5418 47.8925 51.1416 47.7967C51.9226 47.67 52.6028 47.7641 53.2606 47.4178C53.3025 47.3962 53.0911 46.9794 53.1251 46.9553C53.5721 46.6628 54.1172 46.6473 54.5571 46.3337C54.5935 46.3087 54.3771 45.9197 54.4302 45.8658C54.538 45.7524 54.7137 45.7103 54.8977 45.7902C54.9872 45.8284 55.036 46.2149 55.1233 46.2462C55.3268 46.3197 55.5015 46.2859 55.6327 46.1596C55.6881 46.105 55.4254 45.7231 55.5101 45.6849C56.0841 45.4156 56.6357 45.1196 57.442 45.4344C57.4973 45.456 57.8629 46.2971 57.8866 46.0996C57.8016 45.8598 57.6936 45.5809 57.5987 45.3262C58.405 44.8583 59.3695 44.8268 60.2486 44.5404C60.2856 44.5283 60.0481 44.0995 60.1189 44.0736C60.5285 43.9234 60.8753 43.6455 61.4652 43.9352C61.5234 43.9633 61.8096 44.7683 61.8848 44.6009C61.8978 44.5706 62.0401 44.3936 62.0208 44.2024C62.0172 44.1738 61.8403 43.8148 61.8952 43.7811C62.2167 43.5923 62.6092 43.5385 63.0395 43.6336C63.1092 43.6496 63.2031 44.0684 63.2541 44.0833C63.6146 44.1858 63.8024 43.7675 64.2081 44.0242C64.4802 44.1974 64.6781 44.9076 65.0329 45.5449C65.083 45.6348 65.1995 45.6072 65.3565 45.9971C65.7514 46.9775 66.1142 48.0778 66.5415 49.1203C66.6335 49.3449 66.6876 49.0439 66.8109 49.6248C66.8188 49.6638 66.7814 49.8868 66.8265 50.0826C66.8576 50.218 67.0446 50.604 67.0703 50.7827C67.096 50.9613 66.9258 50.643 66.9378 50.86C66.9509 51.0794 67.1532 51.5225 67.0495 51.6242ZM30.5367 58.4655C30.782 58.8086 30.2584 57.4077 30.2808 57.7825C30.2825 57.8023 30.5244 58.4488 30.5367 58.4655ZM18.7187 63.2763C19.0846 63.8421 18.8237 62.9032 18.5496 62.4629C18.2758 62.0231 18.6075 63.1048 18.7187 63.2763ZM17.5583 64.2399C17.8957 64.6672 17.1563 62.6795 17.1496 63.1415C17.1489 63.1678 17.5386 64.2151 17.5583 64.2399ZM64.6665 45.9067C64.675 45.9247 64.7615 45.912 64.7564 45.8929C64.6278 45.4335 64.4549 45.459 64.6665 45.9067ZM16.4235 65.2395C16.5736 65.489 16.5896 65.128 16.4029 64.8176C16.2527 64.568 16.2366 64.9291 16.4235 65.2395ZM36.2429 57.9756C36.2525 57.9958 36.3168 57.9925 36.2703 57.8754C36.1204 57.4984 36.0823 57.6358 36.2429 57.9756ZM14.1829 66.1297C14.5439 66.076 15.3757 67.6328 14.9427 67.5879C14.8643 67.5798 14.883 67.0122 14.7427 66.897C14.4865 66.6874 14.781 67.7527 14.4131 67.2629C14.3461 67.1731 14.1609 66.1292 14.1826 66.1272C14.1827 66.1281 14.1828 66.1289 14.1829 66.1297ZM31.2397 60.1196C31.2488 60.1373 31.3345 60.1244 31.3293 60.1054C31.2012 59.6459 31.0285 59.6717 31.2397 60.1196ZM39.9038 57.5549C39.9233 57.5925 40.1207 57.5586 40.1127 57.5201C39.9289 56.7589 39.529 56.8252 39.9038 57.5549ZM26.316 63.1914C26.4017 63.6702 26.3189 63.7624 26.0344 63.2293C26.1315 63.226 26.2194 63.1971 26.316 63.1914Z" fill="var(--stroke-0, white)"/>
</g>
</svg>
