<svg preserveAspectRatio="none" width="100%" height="100%" overflow="visible" style="display: block;" viewBox="0 0 440 13" fill="none" xmlns="http://www.w3.org/2000/svg">
<path id="Vector 5" d="M12.2383 5.39062C18.8646 5.2627 27.5522 5.21813 34.1552 5.21573C36.2245 5.21476 35.1782 5.32986 36.6067 5.33364C39.4007 5.34077 42.0025 5.25999 44.7636 5.2749C45.6787 5.28028 44.5421 5.45542 45.5015 5.45725C50.7591 5.4658 55.7317 5.36522 61.0572 5.33545C87.2893 5.18774 113.073 4.9298 139.625 4.67262C148.379 4.58807 159.023 4.58878 168.065 4.4194C169.12 4.39957 168.489 4.28084 168.69 4.26795C171.838 4.07016 170.794 4.33797 172.851 4.34634C181.016 4.37902 190.093 4.27581 197.948 4.1309C201.29 4.06889 197.936 3.8668 201.303 3.96206C201.537 3.96838 200.691 4.10892 201.607 4.11138C203.686 4.11664 207.63 4.04427 209.241 4.03444C212.346 4.01604 212.859 4.00828 215.796 3.97307C219.81 3.92617 224.586 3.92946 228.892 3.84672C229.812 3.82875 228.593 3.71439 230.059 3.67422C231.526 3.6341 235.408 3.59719 236.718 3.61124C238.027 3.62531 237.471 3.73307 237.703 3.75331C239.612 3.92415 244.099 3.598 244.676 3.58458C255.21 3.3411 264.246 3.38045 274.135 3.25557C281.643 3.16089 289.669 3.01255 296.813 2.93026C305.323 2.83271 312.537 2.80665 320.804 2.69196C321.677 2.68003 320.653 2.55518 321.718 2.54047C333.04 2.38436 344.284 2.26157 355.558 2.21026C356.689 2.20518 355.234 2.33939 356.363 2.34112C363.28 2.35038 374.225 2.43026 378.326 1.88774C383.011 1.84865 388.698 1.79785 392.89 1.8423C395.593 1.87071 392.97 2.02434 396.289 1.93067C397.037 1.90972 396.062 1.81689 397.185 1.79357C401.911 1.69572 407.076 1.66453 411.751 1.55248C412.702 1.52948 412.441 1.44043 412.71 1.42046C414.081 1.32204 416.005 1.34793 417.492 1.38437L417.517 2.61544C416.548 2.60621 415.764 2.58961 415.44 2.59222C409.18 2.64535 404.612 2.81908 398.783 2.97695C397.43 3.01358 399.032 3.0896 397.731 3.12901C390.981 3.3316 383.988 3.51271 377.377 3.64282C375.906 3.67151 377.255 3.53491 376.552 3.54361C373.453 3.58361 372.772 3.78927 369.799 3.83074C369.173 3.83978 369.523 3.74588 369.409 3.73979C367.616 3.64445 366.068 3.89275 365.609 3.90977C359.792 4.13139 356.067 4.02282 350.448 4.20916C349.775 4.23153 351.295 4.29329 349.404 4.34969C336.813 4.72598 323.494 5.06377 311.028 5.3312C309.089 5.37292 310.471 5.26116 310.349 5.25546C308.357 5.16972 307.076 5.39473 306.445 5.4192C301.461 5.60807 296.8 5.58241 293.419 5.89641C272.304 6.40625 251.292 7.10047 230.349 7.50267C230.083 7.50804 230.557 7.41272 230.026 7.42383C223.63 7.55704 224.862 7.64995 220.634 7.92022C219.57 7.98782 216.322 7.89338 216.034 7.88821C214.988 7.86784 216.069 7.71864 215.718 7.71884C212.82 7.72547 213.303 8.10406 209.395 8.21172C209.273 8.21447 209.784 8.12867 209.456 8.13065C208.437 8.13662 207.427 8.19305 206.43 8.19622C204.146 8.20273 203.328 8.03926 199.846 8.24547C199.405 8.2718 200.085 8.46996 196.596 8.55601C195.205 8.59022 189.049 8.76401 187.323 8.79801C185.6 8.83199 186.781 8.73111 186.658 8.73153C182.012 8.77095 183.772 8.68473 181.442 8.61803C179.112 8.55256 179.766 8.8475 178.819 8.9088C177.87 8.96997 174.463 8.99189 173.626 8.99026C172.789 8.98849 173.831 8.91695 173.087 8.9236C168.155 8.96975 170.928 9.13732 169.305 9.23135C165.478 9.45237 162.489 9.30911 158.982 9.38624C158.033 9.40695 158.809 9.43601 157.964 9.46437C154.619 9.57575 152.605 9.56352 148.801 9.73263C148.178 9.7605 145.105 9.9764 143.111 9.93621C142.828 9.93035 143.628 9.85408 142.202 9.88196C140.072 9.92349 136.233 10.0197 133.944 10.1015C132.254 10.1619 134.194 10.1947 132.066 10.227C131.12 10.2414 132.871 10.1416 131.094 10.1731C129.326 10.2043 124.808 10.3335 123.088 10.3834C121.372 10.4333 122.313 10.4714 122.175 10.4796C121.336 10.528 118.043 10.6505 117.752 10.6585C103.071 11.073 89.5296 11.3489 75.2363 11.7821C74.1146 11.8159 74.8635 11.8561 74.6924 11.8619C70.8528 11.9942 73.8761 11.7479 71.1919 11.7694C71.5831 11.8815 69.9988 11.9036 67.2941 11.9927C65.9907 12.0357 66.7021 12.0629 66.5832 12.071C64.6522 12.1961 63.3034 12.1414 62.9562 12.1325C61.674 12.0995 60.2831 12.2196 59.4105 12.1982C58.5386 12.1774 60.5405 12.0537 57.9462 12.1279C57.2199 12.1909 59.1491 12.2485 57.1799 12.3214C54.0677 12.4367 49.8244 12.5555 45.5047 12.6671L45.5 12.3329C51.4948 12.3474 57.6365 12.3795 61.1103 12.3854C67.0762 12.3955 69.0032 12.3889 72.4796 12.4038C78.759 12.4304 76.4577 12.3556 80.3568 12.324C84.2673 12.2928 82.3663 12.4703 82.9284 12.5089C83.4802 12.5471 84.0827 12.5077 84.7691 12.5287C85.4533 12.5495 83.9721 12.5757 85.5812 12.5832C87.1912 12.5905 91.593 12.5226 92.1636 12.4839C93.3701 12.4014 91.3865 12.314 95.6466 12.3463C95.8916 12.3482 95.0965 12.3932 96.0346 12.3981C103.486 12.4348 111.227 12.4383 118.669 12.468C119.693 12.4721 118.778 12.519 119.373 12.5218C125.576 12.5512 123.359 12.4726 126.759 12.3877C125.995 12.5018 127.875 12.5717 132.583 12.5709C135.413 12.5707 134.926 12.5221 136.756 12.4881C137.305 12.478 139.308 12.5109 139.671 12.4884C140.867 12.4152 138.981 12.3326 143.835 12.3674C144.048 12.369 143.37 12.4084 144.106 12.4111C148.862 12.4279 149.431 12.3534 154.572 12.3475C158.602 12.3431 165.77 12.3901 170.359 12.3983C170.262 12.509 174.596 12.483 176.354 12.4094C179.332 12.4134 182.549 12.4104 185.427 12.4213C186.418 12.425 185.767 12.4549 185.892 12.4582C187.807 12.5093 189.102 12.44 189.745 12.4377C196.712 12.4141 202.388 12.465 209.036 12.4194C209.272 12.4177 209.655 12.3526 211.432 12.4011C211.547 12.4043 209.351 12.4333 212.479 12.4365C215.607 12.44 221.504 12.4743 225.847 12.4468C226.898 12.44 229.556 12.3926 231.689 12.4311C231.973 12.4363 231.662 12.4532 232.073 12.4627C233.399 12.4928 234.123 12.4338 235.682 12.4841C237.241 12.5344 240.483 12.5692 244.863 12.5352C245.003 12.5342 246.039 12.4898 247.417 12.4907C249.615 12.492 252.736 12.501 255.032 12.5006C256.131 12.5005 255.428 12.4744 255.619 12.4739C263.009 12.4607 268.269 12.4845 276.187 12.4935C277.638 12.4949 281.809 12.465 284.619 12.4891C287.705 12.5149 284.534 12.6224 291.626 12.5927C294.486 12.5797 298.107 12.4549 303.248 12.5185C313.217 12.503 322.436 12.5297 332.433 12.5101C332.883 12.5092 334.304 12.4831 335.361 12.4838C336.93 12.4846 337.791 12.4965 338.912 12.4972C343.606 12.5006 347.902 12.4915 352.428 12.4934C354.147 12.494 353.546 12.5042 355.596 12.5046C357.644 12.5049 359.01 12.4924 361.785 12.4985C363.882 12.5032 365.978 12.5267 368.76 12.528C368.866 12.5056 370.778 12.5058 374.174 12.5002C374.827 12.4992 374.127 12.492 374.436 12.4911C375.693 12.4877 376.856 12.4936 378.05 12.4899C378.34 12.4891 378.354 12.4825 378.591 12.4814C380.61 12.4727 383.935 12.488 384.506 12.4902C386.695 12.4992 387.717 12.4918 389.396 12.4952C391.073 12.4985 388.566 12.5024 390.524 12.5042C394.583 12.5076 399.797 12.5058 403.919 12.5054C405.564 12.5052 404.442 12.5004 404.677 12.5002C408.078 12.4993 411.517 12.5031 413.403 12.4957C415.76 12.5146 415.453 12.494 420.314 12.4983C420.697 12.4987 421.184 12.505 419.714 12.5065C418.244 12.5081 416.015 12.5063 413.976 12.5089C413.492 12.5093 410.726 12.5198 410.348 12.5209C407.391 12.528 406.972 12.5114 406.816 12.5104C405.042 12.5004 401.66 12.5133 400.77 12.515C396.697 12.5212 393.236 12.5197 389.829 12.5251C387.601 12.5287 387.383 12.5469 385.634 12.548C379.817 12.5522 377.787 12.5222 372.306 12.5532C371.131 12.56 372.299 12.585 368.088 12.5686C367.824 12.5678 364.697 12.5503 362.891 12.5646C362.664 12.5664 362.671 12.5748 362.372 12.5758C360.367 12.5825 359.03 12.5769 356.845 12.5824C354.661 12.588 352.035 12.5964 349.541 12.5957C348.038 12.5955 346.11 12.5784 345.39 12.5742C343.359 12.562 341.181 12.5865 339.922 12.5703C338.653 12.5535 341.134 12.5262 337.806 12.5155C337.683 12.5444 337.4 12.5743 337.202 12.6038C329.909 12.6104 322.733 12.6067 315.415 12.6148C314.508 12.6158 315.436 12.6339 314.463 12.6357C310.36 12.6434 306.776 12.6329 302.521 12.643C299.227 12.651 295.616 12.6781 292.172 12.6887C290.068 12.6433 284.957 12.6645 281.244 12.664C279.944 12.6637 280.031 12.6498 279.106 12.6461C275.617 12.6322 277.252 12.6774 276.295 12.6858C272.191 12.7227 271.84 12.6148 267.001 12.6203C266.745 12.6203 263.612 12.6834 263.18 12.688C260.438 12.7159 262.726 12.6671 261.01 12.6642C257.877 12.6588 255.699 12.645 252.023 12.6672C250.951 12.6736 248.379 12.7176 246.298 12.6876C246.024 12.6836 246.175 12.6613 245.955 12.6602C241.965 12.6415 241.86 12.7123 239.58 12.7395C237.299 12.7669 233.777 12.7207 233.061 12.7064C231.185 12.6698 234.498 12.6887 234.599 12.6849C235.792 12.6396 233.223 12.6491 231.261 12.6467C230.976 12.5734 228.232 12.5787 229.226 12.6445C229.339 12.6516 230.866 12.6436 231.261 12.6467C229.538 12.7199 226.521 12.7342 223.189 12.6669C221.63 12.6352 223.104 12.5957 218.366 12.6123C216.216 12.6198 217.047 12.6735 215.15 12.6899C210.815 12.7281 205.182 12.6811 200.713 12.6926C199.091 12.697 200.671 12.7276 199.562 12.7318C196.62 12.7435 194.026 12.7215 191.071 12.7369C190.804 12.7384 191.458 12.7723 190.539 12.7737C183.574 12.7857 177.509 12.7692 170.237 12.7757C166.723 12.7788 160.441 12.8068 156.801 12.8065C150.493 12.8066 142.732 12.7542 137.343 12.7734C133.828 12.7861 134.599 12.8279 133.093 12.8587C130.186 12.9191 125.042 12.8229 124.349 12.807C124.328 12.8064 127.353 12.7933 125.739 12.7723C124.801 12.7262 124.383 12.8067 124.349 12.807C123.894 12.7971 117.852 12.7925 116.653 12.8022C116.001 12.8075 116.365 12.8498 116.025 12.8519C107.946 12.8989 99.8527 12.9215 91.6583 12.9097C91.5141 12.9089 91.7314 12.8573 91.3922 12.8561C86.6482 12.8378 83.6106 12.9044 79.6981 12.948C75.7862 12.9915 72.6838 12.9836 70.3681 12.8924C67.4165 12.9074 63.1818 12.8702 60.7449 12.8465C58.3082 12.8227 57.9681 12.9327 57.7537 12.9352C52.9399 12.9908 49.5881 12.9769 45.5 12.9631L45.4869 12.0371C47.0776 11.9976 48.7798 11.9548 50.7229 11.9006C54.0202 11.8089 60.5599 11.6001 64.1294 11.482C66.9504 11.3885 68.651 11.3666 71.2501 11.2721C71.6018 11.2593 71.2449 11.2161 71.3522 11.2108C74.2517 11.0605 72.861 11.2336 73.4607 11.2396C75.6349 11.2616 76.9781 11.2692 80.6923 11.1201C81.5491 11.086 84.0399 10.8185 85.6018 10.7604C87.6324 10.6857 86.8679 10.7787 88.9941 10.6988C89.176 10.6921 89.1369 10.6496 90.4495 10.6126C96.5424 10.4403 103.186 10.2699 109.517 10.0783C110.382 10.0522 109.271 10.0127 110.521 9.9737C116.384 9.79082 122.81 9.60184 128.524 9.4676C129.93 9.43482 129.05 9.51383 129.356 9.52049C131.232 9.5605 133.886 9.34362 134.324 9.32771C144.781 8.94963 152.789 8.84246 163.447 8.4646C164.027 8.44415 168.489 8.15121 170.486 8.22953C170.623 8.23446 172.598 8.31786 174.339 8.16947C174.447 8.16016 173.216 8.12354 175.36 8.06733C177.504 8.01132 180.953 7.85905 183.903 7.8534C184.836 7.85126 187.046 7.93175 189.825 7.73369C190.006 7.72085 194.295 7.32823 195.834 7.46563C196.083 7.48838 195.829 7.69053 199.148 7.49295C199.782 7.4548 198.628 7.44531 200.3 7.36857C202.86 7.25046 206.256 7.20297 209.402 7.02087C209.951 6.98905 212.285 6.78334 214.163 6.83051C214.457 6.83796 213.901 6.92154 214.892 6.89966C219.602 6.79617 224.532 6.6044 229.314 6.51013C231.009 6.47674 230.146 6.61371 231.912 6.59182C233.679 6.56986 237.237 6.49503 239.083 6.3892C240.929 6.28313 238.905 6.16229 241.673 6.06553C253.706 5.64362 265.631 5.39665 277.648 5.05786C279.43 5.00747 277.951 4.98252 280.577 4.90306C290.261 4.61073 306.978 4.04322 315.385 3.94855C322.121 3.87399 313.651 4.21823 318.797 4.118C321.28 4.07003 323.96 3.75173 324.559 3.72619C330.411 3.47587 334.483 3.46269 339.752 3.27398C340.84 3.23487 339.769 3.16691 340.695 3.13461C343.858 3.02319 347.184 2.96914 350.207 2.87122C351.563 2.82703 351.311 2.75716 352.559 2.72593C355.545 2.65036 358.186 2.60428 361.099 2.59143C361.364 2.59033 359.578 2.74053 361.787 2.67901C365.363 2.57896 369.802 2.52195 373.914 2.32476C375.134 2.26597 375.176 2.08158 377.803 2.13028C378.354 2.14036 377.658 2.38165 380.709 2.10094C381.222 2.05463 386.348 1.64276 388.872 1.73527C389.538 1.7596 391.24 1.89286 392.707 1.82097C392.906 1.81048 392.106 1.73357 393.321 1.68781C397.607 1.52817 402.099 1.40601 406.501 1.24353C407.677 1.19987 405.923 1.14599 407.675 1.0841C410.675 0.97797 414.14 0.878701 417.466 0.79332L417.516 3.20706C415.5 3.22854 413.535 3.24571 411.755 3.25914C410.017 3.27204 411.217 3.16453 411.091 3.15664C409.055 3.02713 407.855 3.25951 407.181 3.28216C402.984 3.41936 399.786 3.36461 395.916 3.44834C394.849 3.47125 395.607 3.56448 395.395 3.57692C393.191 3.70065 394.831 3.48871 393.435 3.48852C389.525 3.48724 385.167 3.55906 381.214 3.63057C379.762 3.65701 381.396 3.75626 380.093 3.77872C372.38 3.91412 364.361 4.02186 356.833 4.06281C355.415 4.07027 356.306 3.95931 356.01 3.9413C353.972 3.81433 350.991 4.0714 350.304 4.1022C347.184 4.24155 345.97 4.17216 343.213 4.22891C329.746 4.50889 313.116 4.69646 300.403 4.84468C283.835 5.03966 270.979 5.12364 255.181 5.37989C254.177 5.39608 255.192 5.52737 254.326 5.54331C243.152 5.74324 232.15 5.84682 220.953 6.05495C220.035 6.07183 221.361 6.19576 219.886 6.22785C216.862 6.29472 213.03 6.34421 209.971 6.34328C208.478 6.34305 210.478 6.18888 208.976 6.19103C205.479 6.19561 201.731 6.23977 198.14 6.31592C196.612 6.34871 198.919 6.46505 196.933 6.49616C183.401 6.7109 170.112 6.93743 156.435 6.93562C155.497 6.93554 154.67 6.62868 152.678 6.71844C152.529 6.80926 152.538 6.91346 152.474 7.0092C132.776 7.35014 113.276 7.52344 93.5218 7.79273C92.6889 7.8042 94.1307 7.96206 92.5182 7.98535C83.1854 8.11998 74.1234 8.30569 64.5746 8.26327C63.6272 8.25928 64.1089 7.92879 61.3182 8.01781C60.8261 8.03381 56.6226 8.1376 55.5366 8.22414C55.3891 8.23698 56.1581 8.37783 54.8035 8.4021C46.9314 8.54041 38.6811 8.62688 30.821 8.64619C29.5525 8.64898 30.901 8.46384 29.9974 8.46428C23.5881 8.46795 16.6196 8.6953 10.4943 8.63028C6.39423 8.58566 7.90783 8.27235 5.72602 8.01474C5.41743 7.97837 2.87928 8.00665 2.74581 7.84052C2.40327 7.42278 3.62654 6.94487 3.11616 6.50163C3.03286 6.42783 0.987211 6.49832 0.98567 6.4148C0.985669 6.41478 0.985669 6.41476 0.985669 6.41474C0.985473 6.39012 1.16275 6.35212 1.61994 6.29321C1.76033 6.27578 4.22373 6.16808 4.82968 6.08153C5.25156 6.02166 4.48776 5.86032 5.34909 5.77997C6.21035 5.69978 7.15966 5.83119 8.58806 5.73206C10.0158 5.63206 9.38499 5.44632 12.2383 5.39062ZM49.7727 12.738C47.5164 12.6852 47.1834 12.8838 49.6238 12.8343C49.742 12.8316 49.8891 12.7406 49.7727 12.738ZM322.774 12.562C319.824 12.5369 317.805 12.5774 319.886 12.5967C321.967 12.6152 323.672 12.5692 322.774 12.562ZM353.362 12.5317C349.915 12.5171 349.372 12.5819 353.065 12.5661C353.279 12.5651 353.564 12.5325 353.362 12.5317ZM15.8255 7.79518C15.7942 7.78776 13.9697 7.80495 13.9262 7.81333C12.9571 8.01461 16.6055 7.97949 15.8255 7.79518ZM383.716 12.5106C382.64 12.5053 379.541 12.5123 380.878 12.5191C381.955 12.5243 385.057 12.5169 383.716 12.5106ZM158.884 9.26367C158.92 9.26648 160.227 9.23296 160.2 9.21203C160.11 9.14475 158.291 9.2162 158.884 9.26367ZM435.306 12.5008C427.684 12.5034 423.063 12.4928 431.363 12.497C432.866 12.4975 428.124 12.4978 430.037 12.4988C433.538 12.4996 435.862 12.4986 439.434 12.5C440.081 12.4998 435.741 12.5003 435.293 12.5008C435.297 12.5008 435.302 12.5008 435.306 12.5008ZM48.4734 12.5012C48.4283 12.4986 46.6174 12.4961 46.574 12.4987C45.5934 12.562 49.2414 12.5664 48.4734 12.5012ZM235.19 7.28709C235.29 7.29259 239.491 7.18296 239.628 7.17141C241.815 6.95514 233.322 7.17875 235.19 7.28709ZM170.431 12.4013C172.407 12.3585 174.77 12.3554 176.345 12.4093C174.382 12.4058 172.405 12.4047 170.431 12.4013Z" fill="var(--stroke-0, #2563EB)"/>
</svg>
