<svg preserveAspectRatio="none" width="100%" height="100%" overflow="visible" style="display: block;" viewBox="0 0 54 50" fill="none" xmlns="http://www.w3.org/2000/svg">
<path id="Vector" d="M48.2143 0H5.78571C2.59586 0 0 2.58846 0 5.76923V44.2308C0 47.4115 2.59586 50 5.78571 50H48.2143C51.4041 50 54 47.4115 54 44.2308V5.76923C54 2.58846 51.4041 0 48.2143 0ZM28.9286 3.84615H38.5714V7.69231H28.9286V3.84615ZM15.4286 3.84615H25.0714V7.69231H15.4286V3.84615ZM3.85714 5.76923C3.85714 4.70962 4.72307 3.84615 5.78571 3.84615H11.5714V7.69231H3.85714V5.76923ZM11.5714 46.1538H5.78571C4.72307 46.1538 3.85714 45.2904 3.85714 44.2308V42.3077H11.5714V46.1538ZM25.0714 46.1538H15.4286V42.3077H25.0714V46.1538ZM38.5714 46.1538H28.9286V42.3077H38.5714V46.1538ZM50.1429 44.2308C50.1429 45.2904 49.2769 46.1538 48.2143 46.1538H42.4286V42.3077H50.1429V44.2308ZM50.1429 38.4615H3.85714V11.5385H50.1429V38.4615ZM50.1429 7.69231H42.4286V3.84615H48.2143C49.2769 3.84615 50.1429 4.70962 50.1429 5.76923V7.69231ZM21.3454 34.3654C21.9124 34.6635 22.5296 34.8096 23.1448 34.8096C23.9085 34.8096 24.6703 34.5827 25.3279 34.1327L34.0316 28.1712C35.0788 27.4538 35.7056 26.2692 35.7056 25.0038C35.7056 23.7385 35.0807 22.55 34.0335 21.8327L25.3299 15.8712C24.1457 15.0596 22.6221 14.9712 21.3493 15.6385C20.0784 16.3058 19.2896 17.6096 19.2896 19.0423V30.9654C19.2896 32.3981 20.0784 33.7 21.3493 34.3692L21.3454 34.3654ZM31.8465 25L23.1429 30.9615L23.1332 19.0327L31.8465 25Z" fill="var(--fill-0, black)"/>
</svg>
