<svg preserveAspectRatio="none" width="100%" height="100%" overflow="visible" style="display: block;" viewBox="0 0 196 47" fill="none" xmlns="http://www.w3.org/2000/svg">
<g id="hori_wordmark 1" clip-path="url(#clip0_185_162)">
<path id="Vector" d="M3.48678 3.4748C5.26803 2.30552 8.1016 0.443851 10.1772 0.0739116C10.8408 -0.0443467 11.5009 -0.0146804 12.16 0.120072C12.9085 0.273183 13.6133 0.579535 14.2799 0.946017C17.0089 2.44652 29.6212 11.2327 31.1119 13.4818C31.6263 13.9234 32.3232 14.9109 32.5438 15.5612C34.4814 19.2062 34.5852 24.8657 33.3873 28.7691C32.885 30.4053 31.9904 31.8142 30.8561 33.088C29.7598 34.319 28.4368 35.3718 27.162 36.4097C25.764 37.5623 24.346 38.6903 22.9083 39.7932C20.9016 41.3633 18.8526 42.8785 16.7634 44.3373C15.7801 45.0165 14.7923 45.7282 13.7319 46.2825C12.3272 47.0171 10.9986 47.2101 9.47252 46.7351C7.39768 46.0892 2.43762 43.0763 1.2659 41.2465C0.806001 40.7905 0.463204 40.0949 0.240183 39.492C-0.595815 36.5441 1.26363 31.9395 1.95707 28.9581C2.39992 27.0547 2.70301 24.9615 2.69009 23.0078C2.67517 20.7709 2.1853 18.5148 1.62534 16.3587C0.82811 13.2886 -0.611536 9.88425 0.283481 6.69743C0.861687 5.26928 2.18223 4.22053 3.48678 3.4748Z" fill="url(#paint0_linear_185_162)"/>
<path id="Vector_2" d="M31.1116 13.4818C31.626 13.9235 32.3229 14.9109 32.5435 15.5612C34.4812 19.2062 34.585 24.8657 33.387 28.7691C32.8847 30.4053 31.9901 31.8142 30.8558 33.088C29.7595 34.319 28.4365 35.3718 27.1617 36.4098C25.7637 37.5623 24.3457 38.6903 22.908 39.7932C20.9014 41.3633 18.8524 42.8785 16.7631 44.3373C15.7799 45.0165 14.792 45.7282 13.7316 46.2825C12.3269 47.0171 10.9984 47.2101 9.47225 46.7351C7.39742 46.0892 2.43736 43.0763 1.26562 41.2465C1.79387 41.2216 2.20247 41.3602 2.73805 41.1852C2.77042 41.1727 2.80573 41.1657 2.8353 41.1474C3.27056 40.8778 3.74964 40.731 4.19768 40.4723C5.32851 39.8193 6.44402 39.0667 7.52465 38.3327C8.1484 37.9091 8.80409 37.4774 9.3967 37.0128C9.66054 36.8059 9.85019 36.5175 10.1304 36.3274C10.5896 36.0159 11.1121 35.7968 11.5789 35.4694C12.295 34.9672 13.0181 34.4571 13.701 33.9114C14.2251 33.4925 14.7157 33.0284 15.2546 32.629L22.3979 27.3979C23.1979 26.8013 23.9591 26.1196 24.7629 25.5389C24.9716 25.3884 25.2236 25.2991 25.4316 25.1453C26.1027 24.6494 26.7418 24.0846 27.4017 23.57C28.0451 23.0684 28.7505 22.6254 29.3684 22.0952C29.9625 21.5855 30.4546 20.9768 30.9522 20.3766C31.5743 19.4391 32.0642 18.3371 32.2751 17.2278C32.363 16.7653 32.3927 16.1093 32.1147 15.7012C32.0743 15.0146 31.7404 14.4425 31.3266 13.9137C31.2828 13.8578 31.1188 13.6939 31.1016 13.6329C31.088 13.5842 31.1083 13.5322 31.1116 13.4818Z" fill="var(--fill-0, #463DC7)"/>
<path id="Vector_3" d="M30.9525 20.3766L31.1309 20.5226C30.5914 21.1377 30.0518 21.7429 29.4262 22.2743C28.5636 23.007 27.6258 23.6718 26.7259 24.3589L20.1958 29.2691C16.9263 31.7778 13.6109 34.2268 10.2518 36.6146C8.32622 37.9833 6.37605 39.447 4.31716 40.6088C3.82635 40.8856 3.30064 41.1074 2.73829 41.1852C2.77066 41.1726 2.80597 41.1657 2.83555 41.1474C3.2708 40.8778 3.74988 40.731 4.19792 40.4723C5.32875 39.8193 6.44426 39.0666 7.52484 38.3327C8.1486 37.9091 8.80436 37.4774 9.39697 37.0128C9.66073 36.8059 9.85046 36.5175 10.1307 36.3274C10.5899 36.0158 11.1124 35.7967 11.5792 35.4694C12.2952 34.9672 13.0183 34.457 13.7013 33.9114C14.2254 33.4925 14.7159 33.0284 15.2548 32.6289L22.3981 27.3979C23.1982 26.8013 23.9593 26.1195 24.7632 25.5389C24.9718 25.3883 25.2239 25.299 25.4318 25.1453C26.103 24.6494 26.742 24.0846 27.402 23.57C28.0454 23.0684 28.7508 22.6254 29.3687 22.0952C29.9628 21.5855 30.4548 20.9768 30.9525 20.3766Z" fill="var(--fill-0, #6F5ADF)"/>
<path id="Vector_4" d="M31.1115 13.4818C31.6259 13.9235 32.3228 14.9109 32.5434 15.5612C32.3509 15.9047 32.5487 16.8474 32.5039 17.2838C32.3958 18.3398 31.7726 19.6981 31.1305 20.5226L30.9521 20.3766C31.5742 19.4391 32.0641 18.3371 32.2749 17.2278C32.3629 16.7653 32.3926 16.1093 32.1145 15.7012C32.0742 15.0146 31.7403 14.4425 31.3265 13.9137C31.2827 13.8578 31.1187 13.6939 31.1015 13.6329C31.0879 13.5842 31.1081 13.5322 31.1115 13.4818Z" fill="var(--fill-0, #6F5ADF)"/>
<path id="Vector_5" d="M16.2317 30.9357L25.617 24.0153C26.8114 23.121 28.0909 22.3552 29.2109 21.358C29.995 20.6596 30.7954 19.8638 31.2778 18.9217C31.9102 17.6865 32.0908 16.185 31.4637 14.9008C31.3021 14.5699 30.9803 14.2587 30.8721 13.9203C31.3537 14.1673 31.7091 15.2211 32.0783 15.6589C32.0903 15.6731 32.1027 15.6872 32.115 15.7013C32.393 16.1093 32.3633 16.7654 32.2753 17.2279C32.0644 18.3372 31.5746 19.4391 30.9525 20.3766C30.4548 20.9768 29.9628 21.5855 29.3687 22.0953C28.7508 22.6255 28.0454 23.0684 27.402 23.5701C26.742 24.0846 26.103 24.6494 25.4318 25.1454C25.2239 25.2991 24.9719 25.3884 24.7632 25.539C23.9593 26.1196 23.1982 26.8014 22.3982 27.398L15.2548 32.629C14.7159 33.0285 14.2254 33.4926 13.7013 33.9115C13.0183 34.4571 12.2952 34.9673 11.5792 35.4695C11.1124 35.7968 10.5899 36.0159 10.1307 36.3275C9.85046 36.5176 9.6608 36.806 9.39697 37.0128C8.80436 37.4774 8.14867 37.9091 7.52484 38.3328C6.44428 39.0666 5.32876 39.8193 4.19794 40.4723C3.7499 40.7311 3.27081 40.8778 2.83556 41.1475C2.80599 41.1658 2.77068 41.1727 2.73831 41.1852C2.20274 41.3603 1.79413 41.2217 1.26588 41.2466C0.805986 40.7905 0.463194 40.095 0.240173 39.4921C0.27761 39.5125 0.314381 39.5338 0.352217 39.5533C0.897916 39.8342 0.977448 40.4496 1.6569 40.6116C3.26962 40.996 5.61614 38.781 6.98571 37.9844L7.05059 37.9473C7.61733 37.3595 8.45705 36.8234 9.12917 36.3478C9.57495 35.8967 10.2112 35.5231 10.7272 35.1395L14.0388 32.6549C14.7559 32.1137 15.4699 31.3871 16.2317 30.9357Z" fill="var(--fill-0, #5A4BD7)"/>
<path id="Vector_6" d="M9.12891 36.3478C9.57468 35.8968 10.2109 35.5231 10.7269 35.1396L14.0386 32.6549C14.7556 32.1137 15.4695 31.3871 16.2315 30.9358C15.1477 32.106 13.8775 33.093 12.6337 34.0851C12.1359 34.4822 11.6607 34.9225 11.1189 35.2586C10.4573 35.5993 9.8223 36.0883 9.12891 36.3478Z" fill="var(--fill-0, #463DC7)"/>
<path id="Vector_7" d="M9.12925 36.3478C9.82271 36.0882 10.4576 35.5992 11.1192 35.2586C10.5424 35.8886 7.87756 37.7183 7.05064 37.9473C7.6174 37.3594 8.45712 36.8233 9.12925 36.3478Z" fill="var(--fill-0, #463DC7)"/>
<path id="Vector_8" d="M7.48902 7.33236C7.87496 7.53267 8.24894 7.84634 8.60504 8.09912C9.73765 8.90258 10.838 9.75829 11.9432 10.5988L17.6338 15.0099C19.8943 16.7567 22.1621 18.4383 24.1399 20.5141C24.7573 21.1619 25.3089 21.8588 25.5603 22.7353C25.6 22.8737 25.585 22.9721 25.5377 23.1046L25.4634 23.1413C25.4376 22.9666 25.4328 22.8149 25.4389 22.6397L25.3743 22.5702L25.1994 22.7545C25.1925 22.7344 25.186 22.7142 25.1786 22.6943C25.0748 22.4187 24.8972 22.2032 24.7654 21.9454C24.6104 21.6418 22.7217 20.4485 22.3204 20.1348C21.938 19.8358 21.595 19.4916 21.2223 19.1818C20.7628 18.8001 20.2733 18.4511 19.8213 18.0611C19.4576 17.7471 19.1454 17.3781 18.7625 17.0851L9.9193 10.2677C9.22642 9.73303 7.33778 8.48102 6.87018 7.90154L7.20524 7.91327C7.30383 8.03952 7.48916 8.22853 7.65726 8.25674C8.02216 8.29892 8.32391 8.50239 8.6653 8.62324C8.31526 8.18239 7.9722 7.9235 7.49327 7.63401C7.37844 7.56463 7.2236 7.51633 7.17993 7.38778C7.27694 7.39858 7.32264 7.39951 7.41693 7.3636C7.4413 7.35431 7.46487 7.34272 7.48902 7.33236Z" fill="var(--fill-0, #6F5ADF)"/>
<path id="Vector_9" d="M7.65734 8.25674C8.02223 8.29892 8.32398 8.50247 8.6653 8.62324C8.94629 8.78591 9.24473 8.90114 9.52211 9.07618C11.1777 10.1218 12.6867 11.4883 14.204 12.7224C14.5847 13.0319 15.0021 13.2957 15.38 13.6079C15.6873 13.862 15.9513 14.1662 16.2632 14.4155C16.6056 14.6891 17.0059 14.8824 17.3678 15.1281C18.2351 15.7167 20.3085 17.2002 20.8213 18.0189C20.3333 17.8401 19.8985 17.3972 19.4815 17.0898C18.4659 16.3411 17.4289 15.6243 16.4234 14.8612C16.016 14.5521 15.6472 14.1735 15.2321 13.8822C14.4158 13.3093 13.5548 12.851 12.7654 12.2264C12.2332 11.8054 11.4435 10.9325 10.9748 10.6361C11.1876 10.9676 11.5465 11.2689 11.7964 11.5891C11.4791 11.4201 11.1772 11.1293 10.8942 10.9042C9.82364 10.0525 8.76723 9.01033 7.65734 8.25674Z" fill="var(--fill-0, #5A4BD7)"/>
<path id="Vector_10" d="M2.0166 5.58522C2.0579 5.52416 2.07854 5.48891 2.13157 5.43291C2.3947 5.15515 3.35686 5.06669 3.71804 5.08305C5.02699 5.65692 6.41681 6.36806 7.4886 7.33232C7.46452 7.34276 7.44095 7.35428 7.41651 7.36363C7.32223 7.39955 7.27652 7.39861 7.17953 7.38782C7.22325 7.51629 7.37802 7.56459 7.49285 7.63405C7.97186 7.92353 8.31491 8.18235 8.66489 8.6232C8.32356 8.50243 8.02181 8.29888 7.65692 8.25671C7.48874 8.22856 7.30341 8.03948 7.20484 7.91324L6.86978 7.90158C6.16847 7.36306 5.42534 6.88114 4.7235 6.34319C3.74454 5.93201 3.098 5.6504 2.0166 5.58522Z" fill="url(#paint1_linear_185_162)"/>
<path id="Vector_11" d="M4.72363 6.34316C5.19726 6.27691 5.52672 6.52035 5.88577 6.79065C6.3089 7.10937 6.8959 7.4877 7.20498 7.91321L6.86992 7.90155C6.1686 7.36303 5.42547 6.8811 4.72363 6.34316Z" fill="var(--fill-0, #463DC7)"/>
<path id="Vector_12" d="M0.283203 6.69748C0.86141 5.26934 2.18195 4.22058 3.4865 3.47485C3.21605 3.90572 2.57697 4.23548 2.16757 4.54636C1.51595 5.04108 0.9584 5.65259 0.564446 6.37131C1.01861 5.90932 1.28853 5.74823 1.89671 5.53566L1.80932 5.46994L1.6625 5.50932C1.72418 5.36392 1.79706 5.25644 1.88459 5.12794C1.93188 5.0585 1.91763 5.0879 1.93135 5.00276C2.36008 4.86376 3.20433 4.79126 3.60761 5.01181C3.64611 5.03283 3.68129 5.0593 3.71819 5.08311C3.35701 5.06675 2.39484 5.15521 2.13173 5.43296C2.0787 5.48897 2.05805 5.52422 2.01675 5.58528C0.927087 5.92834 0.990637 6.35974 0.283203 6.69748Z" fill="var(--fill-0, #6F5ADF)"/>
<path id="Vector_13" d="M13.3654 14.2137C13.741 14.234 13.9791 14.314 14.304 14.5037C15.6582 15.2942 16.9222 16.4024 18.1734 17.3522C19.5839 18.407 20.9752 19.4875 22.3465 20.5926C23.0174 21.1356 23.745 21.6681 24.32 22.3142C24.6425 22.6765 24.8407 23.202 24.784 23.6901C24.7527 23.9605 24.6005 24.1344 24.4172 24.3231C23.9624 24.7914 23.3779 25.1719 22.8606 25.5712L19.9117 27.8483C18.7396 28.6895 14.871 32.0003 13.7448 32.1079C13.5711 32.1245 13.4492 32.103 13.3192 31.9816C12.9546 31.641 12.8674 30.8299 12.8209 30.3507C12.6185 28.268 12.7816 26.0776 12.7683 23.9807L12.7503 18.865C12.7479 17.768 12.6874 16.6241 12.8329 15.5362C12.8982 15.0483 13.0494 14.5964 13.3654 14.2137Z" fill="var(--fill-0, #FFFCF2)"/>
<path id="Vector_14" d="M103.431 8.16408C106.513 7.93886 109.768 8.95365 112.156 10.9204C114.893 13.1741 116.34 16.5673 116.657 20.0424C116.986 23.6594 116.124 27.5485 113.751 30.3738C111.459 33.1021 108.532 34.3026 105.04 34.6139C101.755 34.6865 98.7155 34.1825 96.0844 32.0744C93.4418 29.9568 91.9474 26.6417 91.5957 23.3197C91.197 19.5488 91.9806 15.6438 94.4337 12.6637C96.7159 9.89041 99.9057 8.50085 103.431 8.16408Z" fill="var(--fill-0, #F7682B)"/>
<path id="Vector_15" d="M103.876 13.4777C105.304 13.4585 106.615 13.7554 107.78 14.6128C109.45 15.8419 110.329 17.8185 110.62 19.8243C110.973 22.249 110.599 25.0364 109.086 27.034C107.926 28.5681 106.449 29.2687 104.582 29.5373C103.02 29.5439 101.611 29.1901 100.374 28.1997C98.7335 26.8859 97.8966 24.7794 97.6688 22.7381C97.4035 20.3575 97.9211 17.6356 99.4695 15.7469C100.626 14.3356 102.079 13.6472 103.876 13.4777Z" fill="var(--fill-0, #FFFCF2)"/>
<path id="Vector_16" d="M67.5387 8.5226L73.5814 8.51533C78.2251 8.51245 82.2951 8.58004 85.8763 12.0479C88.3928 14.4857 89.415 17.8552 89.4596 21.2936C89.5065 24.8269 88.4303 28.0709 85.9534 30.6283C82.2122 34.1159 78.8934 34.1672 74.0947 34.1676L67.5094 34.1659C67.4952 25.6248 67.383 17.0617 67.5387 8.5226Z" fill="var(--fill-0, #F7682B)"/>
<path id="Vector_17" d="M73.4549 13.4932C76.076 13.4872 78.906 13.278 81.0066 15.143C82.5889 16.5482 83.2557 18.4847 83.3789 20.5528C83.5267 23.0319 83.2124 25.3996 81.5191 27.3131C79.1922 29.5149 76.4357 29.2482 73.4614 29.2474C73.3418 24.0063 73.4542 18.7374 73.4549 13.4932Z" fill="var(--fill-0, #FFFCF2)"/>
<path id="Vector_18" d="M60.1651 8.37939L65.9315 8.40141L64.2286 13.3504L57.0164 34.3169L50.369 34.3023C49.3227 31.361 41.2805 8.92122 41.305 8.46374L41.4602 8.40933C43.6277 8.37953 45.7992 8.41077 47.967 8.41574C48.4999 10.4489 49.2515 12.4733 49.874 14.4851L54.0786 28.1346C56.1011 21.5515 58.2359 14.9888 60.1651 8.37939Z" fill="var(--fill-0, #F7682B)"/>
<path id="Vector_19" d="M130.273 11.7769C130.777 11.7532 131.302 11.7877 131.803 11.8412C133.642 12.0378 135.265 12.7496 136.437 14.2018L136.56 12.2325L141.967 12.241C142.047 15.9312 141.968 19.6378 141.966 23.3303C141.965 25.8503 142.12 28.4861 141.864 30.9871C141.766 31.9449 141.553 32.881 141.161 33.7636C140.252 35.8109 138.527 37.2642 136.444 38.0404C133.482 39.1441 129.794 38.9969 126.922 37.6883C124.838 36.7393 123.503 35.27 122.701 33.1436L122.495 32.2382C124.152 32.2689 125.812 32.2443 127.468 32.2429C127.612 32.4978 127.754 32.7527 127.955 32.9686C128.799 33.8795 130.099 34.1898 131.299 34.2232C132.728 34.2628 134.292 34.0656 135.36 33.0205C136.561 31.8452 136.537 30.1175 136.563 28.5673C135.171 29.9828 133.66 30.7595 131.663 30.9437C129.22 31.1693 126.695 30.4744 124.813 28.8786C122.935 27.2878 121.84 24.9634 121.65 22.5268C121.435 19.7808 122.18 16.9099 124.011 14.8044C125.626 12.9476 127.841 11.9404 130.273 11.7769Z" fill="var(--fill-0, #463DC7)"/>
<path id="Vector_20" d="M131.442 16.58C132.498 16.4561 133.617 16.6056 134.505 17.2207C135.532 17.9319 136.113 19.0862 136.312 20.294C136.576 21.8986 136.514 23.7334 135.514 25.0849C134.729 26.145 133.788 26.4998 132.531 26.6718C131.321 26.7061 130.235 26.6414 129.213 25.8977C128.134 25.1131 127.502 23.8865 127.319 22.5835C127.111 21.1104 127.408 19.5312 128.325 18.3367C129.134 17.2832 130.146 16.7563 131.442 16.58Z" fill="var(--fill-0, #FFFCF2)"/>
<path id="Vector_21" d="M152.088 11.7771C152.378 11.7305 152.711 11.7358 153.005 11.7318C155.277 11.7003 157.949 12.4592 159.6 14.0808C160.545 15.0187 161.212 16.1999 161.524 17.493C162.062 19.6375 161.839 22.0871 161.834 24.2912L161.833 31.2468L156.549 31.2361C156.53 30.4171 156.484 29.5989 156.41 28.7829C156.02 29.3251 155.578 29.7933 155.036 30.1858C153.237 31.4901 150.511 31.8263 148.361 31.4793C146.672 31.207 145.232 30.3754 144.224 28.9934C143.771 28.2862 143.524 27.5738 143.448 26.7421C143.299 25.1313 143.68 23.3488 144.743 22.093C147.034 19.3854 152.881 19.8289 156.207 19.557C156.162 18.9465 156.058 18.3178 155.805 17.7569C155.464 16.9978 154.88 16.3835 154.085 16.101C153.171 15.7761 151.877 15.8312 151.011 16.2667C150.13 16.7099 149.749 17.4094 149.46 18.3029L144.617 18.3012C144.657 16.8679 145.026 15.419 145.949 14.2926C147.42 12.4985 149.896 11.99 152.088 11.7771Z" fill="var(--fill-0, #463DC7)"/>
<path id="Vector_22" d="M155.65 22.9733C155.805 22.9489 155.897 22.9521 156.05 22.9683C156.108 23.0365 156.121 23.0433 156.161 23.1391C156.362 23.6306 156.184 24.4225 156.002 24.8928C155.591 25.9621 154.608 26.7587 153.572 27.1947C152.435 27.6725 151.189 27.741 150.04 27.2756C149.598 26.9549 149.247 26.6025 149.166 26.0351C149.09 25.4994 149.299 24.9071 149.637 24.4938C150.81 23.0584 153.936 23.126 155.65 22.9733Z" fill="var(--fill-0, #FFFCF2)"/>
<path id="Vector_23" d="M185.554 11.7751C186.094 11.7097 186.675 11.7274 187.217 11.7703C189.696 11.9517 192 13.1167 193.614 15.0053C195.55 17.2967 196.154 20.408 195.896 23.3332L182.114 23.3556C182.331 24.621 182.796 25.767 183.838 26.5908C184.874 27.4096 186.214 27.6458 187.499 27.4725C189.012 27.2683 190.068 26.4971 190.982 25.3093L194.903 25.3411L195.715 25.3506C195.501 26.3395 195.03 27.2811 194.417 28.084C192.858 30.1264 190.453 31.2013 187.945 31.5116C185.244 31.8458 182.267 31.2934 180.092 29.5911C178.05 27.9932 177.007 25.6612 176.707 23.1281C176.374 20.316 177.006 17.5251 178.786 15.2812C180.448 13.1856 182.938 12.0702 185.554 11.7751Z" fill="var(--fill-0, #463DC7)"/>
<path id="Vector_24" d="M185.699 15.9966C186.65 15.9416 187.51 16.0192 188.354 16.513C189.646 17.2696 190.171 18.5024 190.541 19.8705L187.034 19.8678C185.389 19.8587 183.745 19.8704 182.102 19.9031C182.221 19.0249 182.484 18.1891 183.021 17.4716C183.716 16.5453 184.589 16.1655 185.699 15.9966Z" fill="var(--fill-0, #FFFCF2)"/>
<path id="Vector_25" d="M165.728 8.13408C167.563 8.13091 169.399 8.13739 171.235 8.15366C171.274 9.51529 171.25 10.8833 171.25 12.2457L175.953 12.2506L175.952 16.4711L171.219 16.4437L171.235 21.7213C171.235 22.9146 171.078 24.4043 171.399 25.5603C171.57 26.1771 171.914 26.7237 172.487 27.0365C173.554 27.6173 174.862 27.2277 175.938 26.8859L175.942 30.2559L175.937 31.1122C174.814 31.4803 173.662 31.6465 172.481 31.6534C170.609 31.6643 168.75 31.3013 167.385 29.9282C166.68 29.2189 166.229 28.3376 165.982 27.3765C165.565 25.7594 165.692 23.9577 165.689 22.2975L165.706 16.4184C164.581 16.4056 163.449 16.4517 162.324 16.4718L162.321 12.2509L165.691 12.2565C165.694 10.9097 165.578 9.46635 165.728 8.13408Z" fill="var(--fill-0, #463DC7)"/>
</g>
<defs>
<linearGradient id="paint0_linear_185_162" x1="-2.74395" y1="37.2912" x2="21.084" y2="5.51507" gradientUnits="userSpaceOnUse">
<stop stop-color="#34267F"/>
<stop offset="1" stop-color="#4E3EC7"/>
</linearGradient>
<linearGradient id="paint1_linear_185_162" x1="5.14529" y1="7.20651" x2="5.75646" y2="6.13716" gradientUnits="userSpaceOnUse">
<stop stop-color="#473CD3"/>
<stop offset="1" stop-color="#735DE3"/>
</linearGradient>
<clipPath id="clip0_185_162">
<rect width="196" height="47" fill="white"/>
</clipPath>
</defs>
</svg>
