<svg preserveAspectRatio="none" width="100%" height="100%" overflow="visible" style="display: block;" viewBox="0 0 3 3" fill="none" xmlns="http://www.w3.org/2000/svg">
<path id="Vector 4" d="M2.49234 1.4956C2.51149 1.5147 2.48254 1.50937 2.44565 1.49695C2.4342 1.49312 2.38855 1.46616 2.37857 1.46234C2.3591 1.45492 2.38036 1.47014 2.35748 1.46076C2.34967 1.45752 2.27707 1.4153 2.27056 1.41285C2.23538 1.3997 2.25136 1.41493 2.23293 1.41128C2.14207 1.39324 2.10073 1.40246 2.05311 1.40911C2.03748 1.41134 1.96532 1.38419 1.98952 1.40916C1.99241 1.41212 2.057 1.44761 2.06219 1.45078C2.14157 1.49934 2.01242 1.42546 1.99408 1.41775C1.92164 1.38732 1.91085 1.39268 1.93142 1.41412C1.94037 1.42335 2.06979 1.49185 1.99635 1.45482C1.99138 1.45233 1.92361 1.41318 1.91584 1.40997C1.89835 1.40276 1.90843 1.41339 1.90216 1.41189C1.88972 1.40881 1.89013 1.40969 1.88778 1.41206C1.88397 1.41497 1.84748 1.40048 1.86063 1.41328C1.86364 1.41613 1.93424 1.45426 1.94535 1.46235C1.95645 1.47043 1.94843 1.47081 1.93124 1.4628C1.91404 1.45479 1.85936 1.42337 1.84664 1.41651C1.73925 1.35858 1.88415 1.44563 1.88748 1.44823C1.94389 1.49318 1.85512 1.45467 1.85005 1.46427C1.84637 1.47165 1.86976 1.49489 1.86213 1.49959C1.85276 1.50503 1.81098 1.49064 1.81305 1.5022C1.81319 1.50338 1.89598 1.54861 1.89631 1.55014C1.8998 1.56634 1.8848 1.57206 1.82322 1.55165C1.81697 1.54956 1.74555 1.5076 1.73499 1.50309C1.67193 1.47636 1.5235 1.40674 1.83567 1.58729C1.82088 1.58488 1.80514 1.58319 1.73952 1.55159C1.69728 1.53126 1.62003 1.48456 1.65181 1.50659C1.65888 1.51151 1.7283 1.54928 1.7337 1.55373C1.75638 1.57242 1.73121 1.56477 1.76429 1.58924C1.77118 1.59431 1.83305 1.62874 1.84402 1.63524C1.93282 1.68799 1.78199 1.60799 1.77073 1.6027C1.68674 1.56338 1.71601 1.58558 1.71091 1.59005C1.70969 1.59107 1.79346 1.63612 1.79527 1.63878C1.80352 1.65191 1.79264 1.6546 1.7523 1.64025C1.74312 1.63695 1.67322 1.59597 1.66523 1.59236C1.63082 1.57694 1.76385 1.65254 1.73343 1.63919C1.72719 1.63647 1.66692 1.60216 1.66022 1.59854C1.55502 1.54169 1.70188 1.62615 1.70489 1.62843C1.74632 1.65902 1.59013 1.57596 1.60895 1.5936C1.61135 1.5958 1.68867 1.63733 1.69076 1.64088C1.70511 1.66479 1.67693 1.66572 1.60904 1.64327C1.59859 1.63984 1.54186 1.60623 1.53471 1.60236C1.42295 1.54207 1.57058 1.62663 1.57582 1.63037C1.61335 1.65773 1.48647 1.59231 1.6613 1.6948C1.58865 1.68055 1.67656 1.75639 1.50704 1.68751C1.50506 1.68673 1.43227 1.64524 1.42865 1.64387C1.38419 1.62694 1.49838 1.68955 1.63495 1.7716C1.66924 1.79221 1.49987 1.70113 1.48743 1.6945C1.44158 1.67007 1.33349 1.60797 1.32454 1.60338C1.25412 1.56747 1.61376 1.76893 1.61178 1.77273C1.61111 1.77251 1.54524 1.73485 1.53849 1.73147C1.51729 1.72085 1.54303 1.73658 1.51973 1.72474C1.46581 1.69732 1.29074 1.59999 1.3905 1.66042C1.40346 1.66826 1.60768 1.78214 1.59617 1.78007C1.59141 1.77915 1.5916 1.787 1.57746 1.78123C1.56334 1.77546 1.49828 1.73742 1.49537 1.73594C1.40601 1.69158 1.37095 1.66967 1.24109 1.59964C1.11172 1.52988 1.41765 1.70095 1.45125 1.72102C1.48475 1.74104 1.41125 1.70403 1.38588 1.69083C1.3605 1.67762 1.31932 1.65317 1.30482 1.64596C1.21001 1.5989 1.45534 1.73325 1.50296 1.76205C1.61575 1.83024 1.38752 1.70577 1.36343 1.69665C1.35692 1.69418 1.40895 1.72244 1.41333 1.72596C1.42996 1.73952 1.35817 1.70172 1.42096 1.74178C1.43119 1.74832 1.56579 1.82781 1.46473 1.77354C1.45016 1.76571 1.39411 1.73321 1.3807 1.72747C1.36057 1.71884 1.34616 1.71558 1.36381 1.72837C1.37687 1.73784 1.47096 1.78826 1.44091 1.77406C1.4275 1.76771 1.374 1.73545 1.35334 1.72608C1.33268 1.7167 1.33265 1.72236 1.3336 1.72507C1.3346 1.72779 1.40569 1.76655 1.41037 1.76935C1.43716 1.78546 1.46943 1.80773 1.46919 1.80796C1.46992 1.82685 1.34366 1.77295 1.37535 1.80875C1.37774 1.81151 1.45258 1.85261 1.45371 1.85346C1.48283 1.87466 1.28655 1.76057 1.21887 1.72592C1.37013 1.81042 1.34193 1.79656 1.35704 1.80846C1.36444 1.81426 1.42331 1.84644 1.42924 1.84992C1.51703 1.90168 1.40157 1.8385 1.37791 1.82564C1.29087 1.77836 1.39215 1.83701 1.33396 1.80542C1.27621 1.77407 1.19237 1.72444 1.19206 1.72753C1.24574 1.75861 1.38808 1.83615 1.40992 1.8509C1.49255 1.90668 1.37423 1.85766 1.3595 1.85691C1.34479 1.85615 1.35373 1.8636 1.33232 1.85594C1.29361 1.8421 1.39969 1.8988 1.44558 1.92949C1.49146 1.96018 1.23453 1.81344 1.17878 1.78283C1.12305 1.75221 1.17979 1.78485 1.14895 1.76838C1.11812 1.75192 1.08121 1.72932 1.0689 1.72444C1.05661 1.71956 1.15286 1.77917 1.21053 1.81229C1.33272 1.88245 1.46271 1.95299 1.41512 1.93161C1.4123 1.93034 1.3449 1.89147 1.33754 1.88852C1.28132 1.86631 1.27393 1.87189 1.22375 1.85306C1.21674 1.85041 1.14178 1.80714 1.13685 1.80512C1.08525 1.78394 1.21367 1.8533 1.35318 1.93595C1.1655 1.82955 1.04942 1.7667 1.04578 1.77058C1.04353 1.77288 1.12593 1.81856 1.18285 1.85284C1.2 1.86317 1.14252 1.83339 1.18096 1.85545C1.3066 1.92754 1.44898 2.00516 1.39008 1.97817C1.38729 1.97687 1.31853 1.93739 1.31395 1.93574C1.28399 1.9249 1.41578 1.99965 1.42901 2.01355C1.4394 2.02446 1.355 1.98606 1.33944 1.98309C1.12803 1.86419 1.17412 1.89554 1.31897 1.97914C1.3114 1.97863 1.31792 1.98634 1.29622 1.97777C1.28882 1.97486 1.22794 1.93984 1.22126 1.93624C1.11646 1.87977 1.25761 1.9607 1.26282 1.96444C1.31314 2.00147 1.20258 1.9465 1.30407 2.01189C1.30773 2.01424 1.45441 2.09713 1.34621 2.03857C1.33875 2.03453 1.2731 1.99488 1.26625 1.99497C1.25939 1.99505 1.17748 1.95645 1.24321 1.99884C1.25904 2.00906 1.37685 2.07859 1.28254 2.02829C1.26973 2.02145 1.22777 1.99749 1.20411 1.98471C1.1287 1.94401 1.27678 2.02811 1.14981 1.95874C1.02285 1.88937 0.926648 1.83941 1.01132 1.89248C1.01377 1.89404 1.13089 1.96114 1.12829 1.96141C1.12403 1.96179 1.09784 1.951 1.09738 1.95363C1.0972 1.95491 1.17064 1.99529 1.17188 1.99622C1.20885 2.0263 1.14089 1.99473 1.10836 1.98642C1.10225 1.98481 1.19965 2.04478 1.11937 2.00321C1.03147 1.95771 0.674448 1.75314 0.756103 1.80794C0.78875 1.82988 1.24192 2.08903 1.00336 1.96147C1.05643 2.00383 0.930801 1.94485 1.00886 2.00128C1.01231 2.00379 1.13857 2.07651 1.13627 2.07655C1.13262 2.07647 1.07279 2.04394 1.06827 2.04281C1.04787 2.03726 1.09635 2.0699 1.08602 2.06979C1.08223 2.06982 1.02117 2.03476 1.01663 2.03479C1.01216 2.03486 1.09226 2.08157 1.05173 2.0623C1.02084 2.04758 0.854502 1.95676 0.833749 1.94861C0.99666 2.04027 0.992276 2.04021 1.03347 2.06763C1.04147 2.07294 1.09857 2.10414 1.10527 2.1083C1.13383 2.12592 1.0862 2.10062 1.11738 2.11964C1.12487 2.12422 1.18051 2.1555 1.18978 2.161C1.27065 2.20898 1.14368 2.14182 1.12157 2.13012C1.03762 2.08571 1.10945 2.12735 1.07595 2.11064C1.04246 2.09393 1.00306 2.06865 0.982224 2.05941C0.939131 2.0403 0.945318 2.05034 0.940545 2.05284C0.938985 2.05403 1.01388 2.0947 1.01538 2.09584C1.0324 2.10968 0.951523 2.06857 1.09849 2.15351C0.7146 1.9408 1.1345 2.17632 1.05529 2.13794C1.04889 2.13482 0.867692 2.03363 0.841918 2.0173C0.816169 2.00099 0.873926 2.03063 0.833614 2.00542C0.824156 1.9995 0.65609 1.90159 0.646022 1.89546C0.567341 1.84754 0.837957 1.99905 0.852892 2.00724C1.01411 2.09559 0.83327 1.98973 0.821127 1.98179C0.765482 1.9454 0.805368 1.96346 0.765918 1.93701C0.740435 1.91989 0.563436 1.82017 0.569798 1.82154C0.590842 1.82605 0.83901 1.96292 0.627722 1.83732C0.582662 1.81052 0.388452 1.70288 0.542934 1.78437C0.552672 1.78951 0.693605 1.86476 0.606494 1.81354C0.595511 1.80709 0.53909 1.7754 0.534511 1.77245C0.504932 1.75331 0.550596 1.77728 0.530244 1.7631C0.509891 1.74892 0.479212 1.72838 0.499687 1.73674C0.511936 1.74173 0.618085 1.79894 0.644206 1.81271C0.719431 1.85242 0.599053 1.78205 0.6895 1.83128C0.780405 1.88076 0.91609 1.96011 0.976173 1.98968C0.829664 1.90721 0.679371 1.82242 0.532071 1.73941C0.54115 1.73534 0.592402 1.7551 0.589858 1.74447C0.589396 1.74307 0.510098 1.69968 0.507572 1.69704C0.497257 1.68608 0.555357 1.71421 0.535273 1.69758C0.519425 1.68453 0.437934 1.6342 0.418765 1.6191C0.587618 1.71132 0.533426 1.67444 0.550748 1.6795C0.556743 1.68123 0.601492 1.70648 0.616603 1.71381C0.672526 1.74084 0.523432 1.65913 0.500621 1.64511C0.403278 1.58526 0.738944 1.7734 0.733255 1.76412C0.733067 1.76369 0.555926 1.66023 0.545022 1.65356C0.47388 1.61014 0.607508 1.68809 0.621643 1.69387C0.647472 1.70444 0.691348 1.72635 0.640945 1.69341C0.626007 1.68367 0.515929 1.61859 0.603261 1.66503C0.614697 1.67112 0.673723 1.70447 0.677303 1.7062C0.737148 1.7348 0.551479 1.63036 0.489803 1.59284C0.428142 1.55533 0.558243 1.62399 0.59558 1.64407C0.692178 1.69598 0.63566 1.66839 0.644985 1.67376C0.755979 1.73762 0.738139 1.72436 0.748627 1.72779C0.930885 1.82982 0.921429 1.82106 0.758766 1.73092C0.740996 1.72108 0.757158 1.73208 0.748627 1.72779C0.570882 1.62576 0.54962 1.61002 0.718375 1.70063C0.797467 1.74311 0.887915 1.79578 0.857083 1.7725C0.84317 1.76197 0.717335 1.69232 0.684169 1.6713C0.608501 1.62334 0.728494 1.68366 0.712466 1.66904C0.706646 1.66373 0.637161 1.62667 0.630818 1.62172C0.613772 1.60844 0.666666 1.63489 0.641872 1.61724C0.639538 1.6156 0.567338 1.57586 0.566916 1.57446C0.562314 1.56311 0.611593 1.58317 0.616775 1.57693C0.619247 1.5739 0.582996 1.54563 0.592918 1.54662C0.609691 1.54811 0.718341 1.59939 0.695855 1.57997C0.681497 1.56748 0.609219 1.52785 0.561064 1.4989C0.467714 1.4428 0.640487 1.53339 0.667184 1.54752C0.668067 1.54799 0.683383 1.5604 0.721139 1.57958C0.798509 1.62187 0.667499 1.54774 0.667184 1.54752C0.684434 1.55664 0.703994 1.56002 0.690901 1.55116C0.683744 1.54632 0.615461 1.50841 0.613017 1.50661C0.556426 1.46465 0.54347 1.44719 0.579708 1.45724C0.581161 1.45788 0.657203 1.50087 0.659669 1.50183C0.69608 1.51632 0.604545 1.46107 0.551333 1.42625C0.498145 1.39145 0.51833 1.39888 0.650318 1.47013C0.635442 1.45805 0.695519 1.48648 0.731901 1.50385C0.768282 1.52123 0.620215 1.43761 0.617399 1.43576C0.527188 1.37666 0.61412 1.42064 0.631054 1.42142C0.639359 1.42194 0.621371 1.4036 0.607078 1.39108C0.595535 1.38104 0.631191 1.39893 0.610374 1.38397C0.607596 1.38196 0.541396 1.34522 0.538912 1.34369C0.461497 1.29654 0.622116 1.38854 0.651258 1.40415C0.757229 1.46096 0.813768 1.49103 0.766463 1.45978C0.755632 1.45262 0.524626 1.31969 0.511878 1.31056C0.495729 1.29893 0.5786 1.34646 0.55957 1.33309C0.558017 1.33199 0.506617 1.30316 0.509588 1.30317C0.522703 1.30287 0.556171 1.31331 0.554425 1.30436C0.554383 1.30325 0.472292 1.25853 0.47089 1.25617C0.464382 1.24513 0.470852 1.24068 0.512068 1.25664C0.52247 1.26072 0.579057 1.29362 0.596163 1.30284C0.699684 1.35865 0.552163 1.27242 0.54956 1.27041C0.483604 1.22019 0.622704 1.28826 0.564257 1.242C0.560801 1.23933 0.403524 1.14535 0.541541 1.22038C0.550725 1.22537 0.691894 1.3022 0.597036 1.24671C0.591101 1.24324 0.51831 1.20389 0.526814 1.20597C0.535302 1.20804 0.488988 1.17768 0.569824 1.21938C0.595291 1.23252 0.73624 1.30893 0.626325 1.24368C0.618645 1.23913 0.369039 1.09349 0.543672 1.18967C0.572416 1.20551 0.756206 1.30909 0.663688 1.25293C0.645747 1.24206 0.604102 1.22011 0.579383 1.20412C0.541277 1.17948 0.592363 1.20391 0.512121 1.15487C0.497911 1.14619 0.374327 1.07382 0.470089 1.12526C0.485087 1.13331 0.546192 1.16835 0.553597 1.17126C0.589091 1.18527 0.550668 1.15748 0.595723 1.17678C0.611562 1.18354 0.710365 1.24014 0.737916 1.2534C0.765458 1.26665 0.792951 1.27762 0.748581 1.25037C0.704191 1.2231 0.544896 1.13615 0.533724 1.12638C0.485209 1.08398 0.584427 1.12472 0.604463 1.12085C0.607448 1.12028 0.550042 1.08989 0.550379 1.08677C0.551372 1.07514 0.507278 1.02932 0.63209 1.08887C0.732058 1.13656 0.800857 1.18588 0.84283 1.20298C0.862868 1.21111 0.680376 1.10521 0.674907 1.10138C0.619232 1.06273 0.702898 1.10461 0.680732 1.08553C0.67613 1.08157 0.601005 1.04071 0.597911 1.03781C0.586683 1.02752 0.621746 1.04303 0.617284 1.03672C0.615111 1.03379 0.558037 1.00204 0.563103 1.00331C0.574567 1.006 0.599921 1.01692 0.654852 1.04412C0.659858 1.04659 0.729727 1.0881 0.733549 1.08747C0.739533 1.08633 0.794565 1.11166 0.742408 1.07718C0.726709 1.06682 0.596601 0.993667 0.687883 1.04165C0.706949 1.05167 0.862834 1.14013 0.729459 1.06135C0.707298 1.04825 0.527944 0.941027 0.646688 1.00457C0.67794 1.02129 0.806722 1.09151 0.787416 1.07881C0.784316 1.07682 0.713988 1.03831 0.707824 1.03332C0.687315 1.0164 0.697187 1.01629 0.67766 0.999781C0.672308 0.995294 0.599034 0.956332 0.593367 0.950942C0.577675 0.936059 0.599326 0.94065 0.624499 0.948861C0.633918 0.951965 0.69319 0.986777 0.699778 0.99032C0.806929 1.04796 0.664421 0.966383 0.656437 0.961048C0.60871 0.928952 0.677673 0.963674 0.661957 0.949976C0.657802 0.946297 0.589138 0.908673 0.583165 0.90505C0.524882 0.869532 0.646581 0.939971 0.660843 0.946228C0.701203 0.963984 0.698059 0.956734 0.691461 0.948053C0.688937 0.944807 0.608914 0.901903 0.607564 0.899504C0.59807 0.884465 0.609952 0.881051 0.65763 0.898365C0.66675 0.901706 0.727216 0.936799 0.741294 0.944336C0.839776 0.997104 0.708542 0.919619 0.696257 0.911853C0.640158 0.876407 0.694704 0.905526 0.686126 0.897238C0.643278 0.856218 0.687908 0.860368 0.716792 0.860599C0.754075 0.860699 0.81896 0.880978 0.812394 0.85741C0.812053 0.855955 0.730434 0.811374 0.729099 0.809535C0.715559 0.787867 0.753151 0.795144 0.73575 0.771278C0.734466 0.769401 0.656895 0.727486 0.65225 0.723021C0.642184 0.713559 0.648421 0.712241 0.674606 0.723104C0.687232 0.728321 0.752109 0.767288 0.763471 0.771782C0.790076 0.78233 0.797564 0.781821 0.787172 0.771463C0.782583 0.766962 0.702735 0.725003 0.702896 0.722594C0.702368 0.70527 0.695971 0.684954 0.805112 0.729065C0.812607 0.732096 0.972812 0.821068 0.943245 0.801948C0.898987 0.776894 0.846827 0.7476 0.799471 0.720912C0.784528 0.687729 0.850389 0.700197 0.869567 0.686115C0.870357 0.685511 0.784934 0.639329 0.786032 0.637918C0.792299 0.629695 0.773718 0.607852 0.862985 0.645992C0.871723 0.649709 1.02038 0.733841 0.999359 0.718518C0.995514 0.715738 0.977912 0.700559 0.946169 0.681357C0.941372 0.678476 0.871449 0.640157 0.870151 0.637724C0.863826 0.624264 0.884128 0.625289 0.930821 0.641634C0.93849 0.644347 1.01179 0.687226 1.01789 0.689519C1.06063 0.705467 1.0081 0.667186 1.0786 0.699089C1.12606 0.720593 1.2532 0.793932 1.38032 0.862611C1.39825 0.8723 1.40243 0.871454 1.47578 0.912499C1.66023 1.0157 1.86135 1.13024 2.05803 1.24011C2.1004 1.26377 2.05666 1.23492 2.15781 1.29429C2.16458 1.29826 2.19718 1.31968 2.23154 1.33975C2.25529 1.35363 2.33023 1.39477 2.36046 1.41284C2.39066 1.43089 2.32768 1.3967 2.36297 1.41833C2.39871 1.4402 2.48383 1.48724 2.49234 1.4956ZM0.894558 1.58143C0.966966 1.61927 0.706386 1.47245 0.767462 1.50984C0.770723 1.51182 0.891003 1.57958 0.894558 1.58143ZM0.789068 1.86564C0.905666 1.92744 0.737635 1.8305 0.647692 1.78258C0.557844 1.73472 0.75372 1.84692 0.789068 1.86564ZM0.856602 1.94207C0.949137 1.98972 0.579662 1.78146 0.652428 1.82699C0.656536 1.82957 0.851228 1.93931 0.856602 1.94207ZM1.41076 0.892421C1.41423 0.894336 1.41859 0.894487 1.41518 0.892517C1.33289 0.84506 1.32424 0.84479 1.41076 0.892421ZM0.931712 2.02246C0.982309 2.04953 0.926233 2.01413 0.863316 1.98046C0.8127 1.95338 0.868771 1.98879 0.931712 2.02246ZM1.2361 1.62523C1.24 1.62738 1.2442 1.62809 1.22222 1.61578C1.15143 1.57611 1.17042 1.58907 1.2361 1.62523ZM0.90825 2.07419C0.926264 2.07472 1.23419 2.24191 1.19527 2.23048C1.18822 2.22841 1.0996 2.17266 1.07104 2.15902C1.01899 2.13418 1.20952 2.24415 1.10483 2.18983C1.08567 2.17988 0.906544 2.07378 0.907832 2.07394C0.907971 2.07402 0.908111 2.0741 0.90825 2.07419ZM1.20846 1.75616C1.21193 1.75805 1.21618 1.75815 1.21278 1.75619C1.13053 1.70875 1.12193 1.70851 1.20846 1.75616ZM1.43834 1.64281C1.44574 1.64685 1.45487 1.64669 1.44817 1.64275C1.31398 1.5646 1.29512 1.5647 1.43834 1.64281ZM1.33376 1.97999C1.41598 2.02867 1.42451 2.03644 1.31908 1.97919C1.32569 1.98043 1.32757 1.979 1.33376 1.97999Z" fill="var(--stroke-0, #F7682B)"/>
</svg>
