<svg preserveAspectRatio="none" width="100%" height="100%" overflow="visible" style="display: block;" viewBox="0 0 101 15" fill="none" xmlns="http://www.w3.org/2000/svg">
<path id="Vector 3" d="M1.33866 13.3634C1.83271 13.0448 2.51652 12.6939 3.04163 12.4518C3.20948 12.374 3.1513 12.466 3.26583 12.4159C3.48927 12.3183 3.68141 12.1858 3.90456 12.095C3.97959 12.0647 3.93042 12.1859 4.00826 12.1524C4.43373 11.9688 4.80552 11.7511 5.23266 11.5524C7.31119 10.5886 9.36436 9.65699 11.5118 8.7803C12.2194 8.49116 13.1085 8.20736 13.8306 7.8874C13.9152 7.84981 13.8369 7.80144 13.851 7.78934C14.073 7.60229 14.0422 7.77426 14.2166 7.72753C14.9102 7.54144 15.6532 7.2718 16.2908 7.01471C16.5617 6.90544 16.2368 6.86517 16.5417 6.84466C16.5628 6.84312 16.5189 6.94153 16.5972 6.92284C16.7747 6.88014 17.0957 6.75443 17.2309 6.7151C17.4917 6.63953 17.5339 6.62454 17.7777 6.54444C18.1114 6.43575 18.52 6.34487 18.8741 6.21605C18.9496 6.18835 18.8241 6.14331 18.9426 6.09225C19.061 6.04103 19.3884 5.94849 19.5037 5.934C19.6189 5.91932 19.5901 5.99375 19.6137 6.0018C19.7252 6.04159 19.8805 5.96894 20.002 5.8968C20.0908 5.84358 20.1623 5.79017 20.1824 5.78256C21.0499 5.46132 21.8399 5.35597 22.6771 5.15012C23.3117 4.99411 23.9911 4.80395 24.5967 4.67375C25.3213 4.51833 25.948 4.42996 26.6495 4.27904C26.724 4.26315 26.6177 4.18854 26.7088 4.16895C27.6735 3.96167 28.6376 3.78747 29.6144 3.67424C29.7125 3.66294 29.6023 3.76718 29.7013 3.76078C30.3054 3.71948 31.269 3.71772 31.5616 3.30271C31.9647 3.24832 32.4561 3.18142 32.8276 3.19459C33.0676 3.20297 32.857 3.32853 33.1354 3.24446C33.1981 3.22567 33.1022 3.16109 33.1972 3.13881C33.5977 3.04499 34.0459 3.00037 34.4416 2.898C34.5223 2.87696 34.4891 2.81044 34.5104 2.79426C34.6908 2.66195 35.0388 2.78176 35.1118 2.78334C35.6656 2.7934 36.0516 2.69988 36.5539 2.6298C36.6703 2.61365 36.5192 2.53926 36.6308 2.52034C37.211 2.42334 37.8152 2.34756 38.3898 2.31255C38.5178 2.30497 38.4121 2.40098 38.4738 2.40147C38.7458 2.40279 38.7856 2.24313 39.0455 2.24208C39.1003 2.24168 39.079 2.31444 39.0898 2.3207C39.2594 2.41892 39.3714 2.23346 39.4106 2.22457C39.9067 2.10848 40.2491 2.2432 40.7309 2.15787C40.7885 2.14752 40.6469 2.07668 40.8095 2.0529C41.8531 1.89985 42.9616 1.792 44.011 1.74168C44.0515 1.73973 44.0919 1.73786 44.1323 1.7361C44.3011 1.72862 44.1885 1.80715 44.1999 1.81408C44.3854 1.92168 44.4783 1.74073 44.5324 1.72854C44.9586 1.63683 45.3761 1.73791 45.649 1.50729C47.4837 1.3963 49.298 1.13392 51.1272 1.19397C51.1504 1.19453 51.1146 1.28089 51.1609 1.28165C51.719 1.29212 51.6024 1.16943 51.9609 0.987367C52.0513 0.941638 52.3444 1.11653 52.37 1.12917C52.4637 1.17561 52.3771 1.30564 52.4081 1.31387C52.6633 1.3779 52.5985 0.96865 52.9383 0.949133C52.9489 0.949218 52.9086 1.0275 52.9375 1.03342C53.0274 1.05205 53.1134 1.01704 53.2013 1.03835C53.4025 1.08783 53.4835 1.28394 53.7802 1.15165C53.8176 1.13459 53.7471 0.903931 54.0506 0.899524C54.1708 0.897843 54.7068 0.867761 54.857 0.876182C55.0072 0.884396 54.908 0.964408 54.9188 0.967173C55.3254 1.0484 55.1756 1.0966 55.3839 1.23505C55.5921 1.3731 55.521 1.02537 55.6017 0.982763C55.6828 0.940207 55.9803 1.01021 56.0549 1.03588C56.1289 1.06153 56.04 1.11301 56.1053 1.12659C56.5379 1.21535 56.2866 0.945357 56.4256 0.884296C56.7526 0.740027 57.0226 0.990517 57.3273 1.00575C57.4098 1.00987 57.3407 0.952941 57.4138 0.944976C57.702 0.914348 57.882 0.989832 58.2094 0.905868C58.2627 0.892163 58.5258 0.728355 58.7025 0.838461C58.7275 0.854349 58.6595 0.920927 58.7839 0.932183C58.9696 0.949063 59.302 0.955145 59.5014 0.929084C59.648 0.90981 59.4773 0.806797 59.6629 0.835914C59.7453 0.848955 59.5946 0.914633 59.7492 0.933948C59.9022 0.953213 60.2958 0.942856 60.445 0.938182C60.5939 0.933386 60.5109 0.853857 60.5229 0.848191C60.5953 0.815637 60.8797 0.772041 60.9058 0.771789C62.1831 0.742669 63.3606 0.872616 64.6012 0.832011C64.6987 0.82897 64.6341 0.743334 64.649 0.74199C64.9847 0.707746 64.7194 0.933478 64.9525 1.01069C64.9197 0.837265 65.0576 0.869297 65.2916 0.852035C65.4042 0.843598 65.3434 0.776048 65.3537 0.769257C65.5236 0.668688 65.6398 0.801433 65.6696 0.828638C65.7801 0.928728 65.902 0.812989 65.9766 0.880031C66.0511 0.946588 65.8768 1.04199 66.101 1.04334C66.1654 0.982081 65.9988 0.818 66.1715 0.793802C66.8185 0.7013 68.0233 0.85189 68.5425 0.879326C69.056 0.905827 69.2305 0.899897 69.5278 0.931471C69.5319 0.931913 69.536 0.932346 69.5401 0.932767C70.0721 0.987704 69.8799 0.862638 70.2166 0.819706C70.5611 0.777118 70.3834 1.0668 70.4302 1.13214C70.4758 1.19746 70.5305 1.13402 70.5886 1.17122C70.6463 1.20841 70.5168 1.2467 70.6552 1.26517C70.7911 1.2834 71.1817 1.18633 71.2328 1.12208C71.3433 0.985868 71.1771 0.830406 71.5447 0.898728C71.566 0.902775 71.4929 0.977359 71.5746 0.988915C72.2162 1.07785 72.8914 1.11705 73.5325 1.20937C73.6207 1.22219 73.5361 1.30372 73.5873 1.31216C74.1184 1.40097 73.9391 1.24362 74.2435 1.10129C74.1634 1.31226 74.3156 1.45407 74.7238 1.48465C74.9673 1.50321 74.932 1.40623 75.0964 1.35197C75.1458 1.3356 75.314 1.41345 75.3486 1.37175C75.4639 1.23563 75.3103 1.06034 75.7289 1.159C75.7472 1.16357 75.6818 1.23777 75.7453 1.24779C76.1524 1.31322 76.2179 1.16667 76.6641 1.18874C77.0155 1.2061 77.6274 1.35939 78.0223 1.41747C77.9869 1.65746 78.3693 1.64329 78.5385 1.49451C78.7964 1.53074 79.0736 1.55415 79.3204 1.60799C79.4049 1.62639 79.3401 1.68913 79.3499 1.69799C79.4995 1.83651 79.6319 1.68948 79.6884 1.69029C80.2977 1.70629 80.7681 1.89654 81.3582 1.86305C81.3788 1.86179 81.4373 1.70008 81.5721 1.84511C81.5807 1.85501 81.3802 1.90184 81.6484 1.94894C81.9158 1.99587 82.4084 2.16621 82.7928 2.15246C82.8863 2.14918 83.1368 2.05329 83.3019 2.19086C83.3237 2.20944 83.2887 2.25234 83.3192 2.28501C83.4178 2.38941 83.5094 2.23272 83.6172 2.39909C83.7252 2.56557 83.9812 2.72195 84.3726 2.69459C84.3849 2.69398 84.4986 2.57813 84.6157 2.60282C84.8025 2.64226 85.0629 2.72196 85.2584 2.76017C85.3521 2.77841 85.3086 2.68426 85.3252 2.686C85.4773 2.70506 85.6178 2.72918 85.7525 2.75718C86.1833 2.8469 86.5547 2.97536 87.0609 3.11165C87.1824 3.14445 87.5612 3.11159 87.7792 3.25416C88.0183 3.41065 87.6583 3.74894 88.2775 3.79284C88.526 3.81109 88.9548 3.37638 89.3235 3.74606C90.18 3.889 90.9167 4.22553 91.7782 4.36495C91.8168 4.37124 91.9743 4.26384 92.0623 4.29059C92.1927 4.33051 92.247 4.41665 92.3386 4.44732C92.7248 4.57831 93.1 4.62679 93.4734 4.74713C93.6156 4.7929 93.5463 4.84564 93.7146 4.90019C93.8828 4.95474 94.0255 4.90097 94.2414 5.01373C94.4053 5.09958 94.5237 5.33434 94.7465 5.42702C94.8107 5.25129 94.9691 5.30449 95.2639 5.34612C95.3209 5.35413 95.2826 5.27373 95.3105 5.27433C95.4247 5.27534 95.506 5.35786 95.6148 5.35437C95.6414 5.35369 95.662 5.29326 95.6849 5.28928C95.8802 5.25308 96.1126 5.47942 96.151 5.51829C96.3017 5.66725 96.4133 5.61653 96.5396 5.69751C96.6655 5.77839 96.4452 5.7549 96.5987 5.82949C96.9183 5.98441 97.3518 6.11908 97.6875 6.23665C97.8223 6.28346 97.7577 6.17138 97.7776 6.17621C98.0664 6.25188 98.315 6.43379 98.5275 6.32797C98.5755 6.8094 98.7083 6.34546 99.0788 6.5688C99.1077 6.5865 99.0782 6.79613 98.9486 6.78284C98.8174 6.76893 98.656 6.64365 98.4745 6.63082C98.4323 6.62787 98.1401 6.73244 98.1059 6.73315C97.8343 6.73684 97.9018 6.43233 97.8939 6.41158C97.8066 6.18722 97.4622 6.29143 97.3852 6.28072C97.028 6.22993 96.7585 6.09407 96.4638 6.04668C96.272 6.0157 96.1892 6.20238 96.0478 6.14959C95.5775 5.97485 95.4953 5.6509 94.9694 5.74231C94.8571 5.76198 94.887 6.00374 94.5916 5.72855C94.5731 5.71121 94.3631 5.47872 94.1834 5.52939C94.161 5.53582 94.1426 5.59786 94.1163 5.5955C93.9411 5.57863 93.8454 5.49563 93.6576 5.4648C93.4709 5.43432 93.242 5.40446 93.0428 5.32298C92.9228 5.27395 92.7957 5.11131 92.7445 5.06575C92.6004 4.93535 92.3799 5.01718 92.304 4.8885C92.2269 4.75901 92.4761 4.66636 92.2177 4.52356C92.1616 4.68241 92.091 4.84179 92.0286 4.99986C91.425 4.82341 90.8418 4.60883 90.2289 4.45718C90.1528 4.43854 90.2076 4.54613 90.1255 4.52848C89.7805 4.45405 89.4962 4.31566 89.1339 4.25271C88.8534 4.20437 88.5285 4.22442 88.2346 4.17992C88.1027 3.95094 87.6581 3.91483 87.35 3.82786C87.242 3.7974 87.2604 3.74889 87.1862 3.71517C86.9056 3.58946 87.0067 3.78608 86.9205 3.79444C86.5508 3.83051 86.6028 3.44786 86.1914 3.37044C86.1695 3.36612 85.8628 3.51154 85.8239 3.51662C85.5755 3.55036 85.8001 3.43874 85.658 3.39405C85.6466 3.39047 85.6354 3.38688 85.6243 3.38329C85.3829 3.30534 85.2096 3.22721 84.9008 3.22488C84.8064 3.22438 84.5648 3.30748 84.4071 3.17671C84.3863 3.15955 84.4118 3.09541 84.3939 3.08794C84.068 2.95865 84.0193 3.16666 83.8135 3.20191C83.6079 3.23721 83.3355 3.03905 83.282 2.98664C83.142 2.85049 83.4122 2.9621 83.4226 2.95314C83.5463 2.84523 83.3247 2.82777 83.1593 2.78788C83.171 2.57778 82.9351 2.5496 82.988 2.74752C82.9941 2.76916 83.1273 2.77255 83.1593 2.78788C82.9772 2.964 82.7177 2.94567 82.466 2.70971C82.3481 2.59933 82.4903 2.51608 82.0801 2.48838C81.894 2.47607 81.9423 2.62941 81.7741 2.64256C81.3925 2.6729 80.9301 2.4683 80.5464 2.43587C80.4065 2.42399 80.5309 2.52091 80.4349 2.51552C80.1819 2.50184 79.9661 2.4132 79.7112 2.41057C79.688 2.41042 79.7332 2.49938 79.6547 2.49026C79.0591 2.42315 78.5465 2.30925 77.9233 2.24058C77.6235 2.2073 77.0777 2.19804 76.7683 2.16017C76.229 2.09369 75.5693 1.91832 75.1049 1.91245C74.7989 1.90802 74.861 1.99552 74.7275 2.04203C74.4699 2.13221 74.0415 1.90796 73.9831 1.87404C73.9815 1.87287 74.2431 1.87083 74.1071 1.81935C74.0321 1.726 73.986 1.87385 73.9831 1.87404C73.9436 1.85161 73.4268 1.80033 73.3207 1.81012C73.2636 1.81535 73.2906 1.89519 73.2609 1.89645C72.5612 1.92511 71.8639 1.90997 71.1583 1.84343C71.1459 1.84133 71.1684 1.75485 71.1392 1.75099C70.7279 1.69482 70.4665 1.7919 70.1234 1.84316C69.886 1.87951 69.6819 1.87547 69.5124 1.81523C69.4429 1.79007 69.3794 1.75507 69.3219 1.70907C69.067 1.72017 68.7015 1.64383 68.4925 1.59838C68.2824 1.55286 68.2482 1.72225 68.2296 1.72515C67.651 1.81928 67.319 1.71539 66.7176 1.69079C66.4344 1.67876 65.8669 1.69649 65.558 1.71253C65.3117 1.72534 65.1679 1.68447 64.9422 1.70864C64.9118 1.71187 64.9421 1.78776 64.9328 1.79062C64.6809 1.87987 64.8026 1.69544 64.7508 1.66212C64.5613 1.54108 64.4487 1.47652 64.1258 1.53256C64.0514 1.54538 63.834 1.81176 63.7002 1.8275C63.525 1.84747 63.5911 1.75183 63.4071 1.77536C63.3913 1.7773 63.3948 1.8362 63.281 1.83394C62.7544 1.82422 62.1808 1.79404 61.6315 1.80634C61.5564 1.8078 61.6534 1.90014 61.5458 1.9038C61.0405 1.9209 60.485 1.92638 59.9892 1.89259C59.8679 1.88397 59.9424 1.817 59.9158 1.79811C59.7518 1.6838 59.5255 1.8597 59.4876 1.86383C58.5865 1.96665 57.8877 1.83214 56.9701 1.93807C56.9192 1.94412 56.5417 2.14119 56.3633 1.99102C56.3512 1.98103 56.1743 1.82706 56.0275 1.94299C56.0186 1.95024 56.1278 2.02859 55.9425 2.02769C55.7576 2.02681 55.4622 2.09463 55.2028 2.0153C55.121 1.9903 54.9237 1.8387 54.6891 1.97779C54.6739 1.98737 54.316 2.29397 54.1746 2.10159C54.1515 2.06993 54.1634 1.85791 53.882 1.98073C53.8283 2.00452 53.9303 2.04632 53.7873 2.08321C53.5678 2.14003 53.2727 2.09941 53.0061 2.20866C52.9597 2.22794 52.7656 2.38244 52.5979 2.28346C52.5716 2.26796 52.6156 2.19481 52.5298 2.19199C52.1217 2.17826 51.6987 2.25194 51.2834 2.23057C51.1361 2.22319 51.2033 2.10459 51.0486 2.08439C50.894 2.06417 50.5855 2.05607 50.4295 2.11936C50.2736 2.18265 50.4608 2.35117 50.223 2.38281C49.191 2.52054 48.1565 2.49759 47.1208 2.57571C46.9672 2.58734 47.1003 2.64036 46.8744 2.66232C46.132 2.73404 44.9148 2.90541 44.1384 2.90375C44.044 2.90345 43.956 2.90048 43.8762 2.89431C43.2849 2.849 44.0044 2.68406 43.5567 2.68882C43.3407 2.69144 43.1335 2.92744 43.0827 2.93995C42.5871 3.06465 42.2265 3.013 41.7772 3.09584C41.6845 3.11299 41.7864 3.18685 41.7074 3.20052C41.4379 3.24797 41.147 3.24517 40.8888 3.28433C40.7729 3.30211 40.8025 3.36424 40.6948 3.37263C40.4368 3.39357 40.2068 3.3951 39.9497 3.36645C39.9262 3.36385 40.0691 3.26354 39.8794 3.28491C39.5714 3.31989 39.1833 3.30983 38.8384 3.4189C38.736 3.45154 38.7517 3.59996 38.5131 3.52818C38.4631 3.51324 38.4989 3.3274 38.2582 3.51649C38.2183 3.54781 37.8054 3.81537 37.5717 3.71221C37.5098 3.68508 37.345 3.56007 37.2218 3.60077C37.2053 3.60683 37.285 3.67653 37.1816 3.69904C36.8172 3.77706 36.4329 3.82386 36.0589 3.90428C35.9593 3.92588 36.1211 3.9859 35.9724 4.01548C35.5646 4.09679 35.0465 4.15366 34.6395 4.1903C34.4894 4.20366 34.5816 4.11986 34.5697 4.11414C34.377 4.02085 34.2998 4.19914 34.2438 4.21758C33.8958 4.33008 33.608 4.29781 33.2831 4.37095C33.1933 4.39097 33.2701 4.45786 33.2531 4.46767C33.0752 4.56561 33.1933 4.40401 33.0714 4.40812C32.7299 4.41922 32.3611 4.48668 32.0249 4.55357C31.9019 4.57818 32.0559 4.64423 31.9455 4.66529C31.2917 4.79174 30.6077 4.90275 29.9603 4.96943C29.8378 4.98193 29.9013 4.89935 29.8732 4.88822C29.6795 4.80987 29.4545 5.00627 29.3995 5.03127C29.1457 5.14574 29.0309 5.10441 28.8001 5.15978C27.672 5.43082 26.2537 5.67692 25.1824 5.88745C23.7809 6.16351 22.6876 6.35596 21.386 6.72187C21.3021 6.74552 21.411 6.81245 21.3392 6.83397C21.0089 6.93159 20.6782 7.02449 20.3557 7.1165C19.7723 7.283 19.1887 7.45346 18.6097 7.65903C18.5356 7.68522 18.6705 7.7341 18.5525 7.77898C18.3108 7.87163 17.9985 7.9705 17.7417 8.02816C17.6164 8.05645 17.7542 7.92961 17.6285 7.95964C17.3359 8.02948 17.0297 8.12961 16.7445 8.24625C16.6232 8.2961 16.8395 8.31462 16.6797 8.37281C15.5909 8.77206 14.5334 9.19546 13.401 9.53128C13.3234 9.55432 13.1883 9.41152 13.0433 9.50929C13.0508 9.56122 13.0742 9.61625 13.0898 9.66864C11.5343 10.3425 9.98036 10.9665 8.43774 11.6907C8.37329 11.721 8.52606 11.7557 8.4017 11.8147C7.67567 12.1602 6.98852 12.5284 6.21241 12.8143C6.13588 12.8426 6.0947 12.6717 5.89489 12.8028C5.85769 12.8269 5.54418 13.0138 5.48027 13.0889C5.47174 13.0997 5.56614 13.1405 5.46522 13.1955C4.86815 13.519 4.23377 13.8365 3.61856 14.1192C3.52056 14.164 3.57978 14.0345 3.50974 14.0657C3.00307 14.2933 2.51389 14.6442 2.0227 14.8431C1.69769 14.9743 1.72824 14.7861 1.49659 14.756C1.46733 14.7496 1.27172 14.8639 1.21996 14.7973C1.08483 14.632 1.05659 14.3784 0.901798 14.2088C0.865993 14.1735 0.647789 14.3687 0.731743 14.1796C0.7362 14.1674 0.902688 14.0206 0.931445 13.9571C0.948005 13.9151 0.848348 13.8752 0.893305 13.8071C0.938838 13.7388 1.04628 13.758 1.13785 13.6558C1.22635 13.5551 1.1241 13.502 1.33866 13.3634ZM67.5459 1.39717C67.352 1.3117 67.318 1.61021 67.53 1.54276C67.5404 1.53915 67.556 1.40138 67.5459 1.39717ZM90.9029 4.39393C90.6902 4.20051 90.4716 4.34383 90.6195 4.48818C90.7675 4.63259 90.9673 4.4526 90.9029 4.39393ZM93.4763 5.02195C93.219 4.83698 93.0543 5.23063 93.3846 5.2392C93.4038 5.23986 93.4914 5.03274 93.4763 5.02195ZM2.22718 14.2801C2.22241 14.2782 2.08595 14.3524 2.08523 14.3574C2.06143 14.4808 2.33332 14.3328 2.22718 14.2801ZM96.0186 5.70473C95.9486 5.62156 95.6706 5.6015 95.7596 5.70517C95.8314 5.78857 96.1066 5.80838 96.0186 5.70473ZM57.3404 1.15139C57.3372 1.14703 57.2237 1.14685 57.2268 1.17196C57.2373 1.25278 57.3942 1.22459 57.3404 1.15139ZM100.25 7.15604C99.6336 6.91665 99.3731 6.45268 100.039 6.73265C100.16 6.7836 99.7355 6.74258 99.8816 6.82851C100.151 6.98617 100.411 6.8463 100.665 7.06425C100.711 7.10367 100.284 7.17009 100.249 7.1561C100.249 7.15608 100.249 7.15606 100.25 7.15604ZM67.4403 1.03579C67.4366 1.03174 67.2802 1.02506 67.2764 1.02893C67.19 1.12228 67.5048 1.13578 67.4403 1.03579ZM50.7127 1.30404C50.7035 1.29614 50.3388 1.31378 50.3274 1.32247C50.1486 1.49066 50.8853 1.45543 50.7127 1.30404ZM78.0278 1.42458C78.2087 1.34793 78.4164 1.35971 78.5377 1.4943C78.37 1.4688 78.1976 1.44877 78.0278 1.42458Z" fill="var(--stroke-0, #2563EB)"/>
</svg>
